<svg width="272" height="440" viewBox="0 0 272 440" fill="none" xmlns="http://www.w3.org/2000/svg">
<g clip-path="url(#clip0_3526_5033)">
<path d="M139.7 331.3L112.7 336.8C104.6 338.5 99.4 346.4 101 354.5L116 427.7C117.7 435.8 125.6 441.1 133.7 439.4L160.7 433.9C168.8 432.2 174 424.3 172.4 416.2L157.4 343C155.8 334.8 147.8 329.6 139.7 331.3Z" fill="#E1A060"/>
<path d="M266.7 344.7L200.9 281.3L209.3 279.6C220.6 277.3 224.7 263.2 216.4 255.2L153.8 194.7L160.3 193.4C171.8 191 175.8 176.6 167.1 168.7L115.9 122.3C127 120 131.2 106.4 123.3 98.1998L75.1 48.6998C70.7 44.1998 63.1 45.6998 60.9 51.5998L36.2 116.1C32.1 126.7 41.4 137.6 52.5 135.3L23.7 198.1C18.8 208.8 28.1 220.5 39.6 218.2L46.1 216.9L12.3 297C7.80001 307.6 17.1 319 28.4 316.6L36.8 314.9L1.20001 399.1C-3.29999 409.7 6.00001 421.1 17.3 418.8L138.5 394L259.7 369.2C271 366.7 275.1 352.7 266.7 344.7Z" fill="#9FC76E"/>
<path d="M252.3 330.8C250.3 335.6 247.3 339.8 243.2 343C232.8 350.8 215.4 348.6 209.5 337C206.5 348.6 195.8 357.8 183.8 359C171.9 360.2 159.5 353.2 154.3 342.4C149.1 351.8 137.3 357.6 127.2 354.3C117 351 111 337.6 116.6 328.5C110.3 334.2 103.8 340.1 95.8 342.9C87.8 345.7 77.7 344.4 72.5 337.7C68.1 332 68.1 324.1 68.9 316.9C71.6 292.6 80.3 268.9 94.1 248.7C87.6 251.3 80.7 243.8 81.2 236.8C81.6 229.8 86.5 224 91.2 218.8C84.8 226.3 71.3 222.9 66.2 214.4C61.1 205.9 62.5 195 66 185.8C69.5 176.6 74.8 168 77.4 158.5C74.1 164 64.5 160.3 63 154C61.5 147.7 64.8 141.5 67.7 135.7C70.6 129.9 73.1 123 70.1 117.3C65.9 122.4 56.8 119.5 53.7 113.6C50.6 107.7 51.8 100.6 53.2 94.0998C56.5 78.0998 60.7 62.2998 65.6 46.7998C63.5 47.5998 61.7 49.2998 60.8 51.6998L36.1 116.2C32 126.8 41.3 137.7 52.4 135.4L23.6 198.2C18.7 208.9 28 220.6 39.5 218.3L46 217L12.3 297C7.80001 307.6 17.1 319 28.4 316.6L36.8 314.9L1.20001 399.1C-3.29999 409.7 6.00001 421.1 17.3 418.8L138.5 394L259.7 369.2C271 366.9 275.1 352.8 266.8 344.8L252.3 330.8Z" fill="#769653"/>
<path d="M166.7 388.1L112.6 411.4L110.2 399.7L166.7 388.1Z" fill="#BF7341"/>
<path d="M121.9 89.6C119.2 96.1 116.3 103.2 109.9 106.8C107.4 108.2 104.3 108.8 101.6 108.4C101.9 107.5 102.2 106.7 102.4 105.8C103.3 100.7 100.9 95.5 95.7 94.1C95.1 93.9 94.5 94.1 94.2 94.6C90.3 99.7 92.6 106.3 97.3 109.6C96.5 110.8 95.6 111.9 94.7 112.8C89.9 117.6 82.7 119.9 76.2 117.4C74.2 116.7 72.1 115.3 70.4 113.5C71.6 112.6 72.7 111.6 73.6 110.5C75.9 107.8 78.9 102.7 77 99.1C75.3 96 70.8 95.6 68.1 97.5C64.3 100.1 64.3 105.5 65.5 109.5C65.9 110.7 66.4 111.8 67 112.8C54.6 119.7 44.2 109.5 37.7 99.8C37 98.7 35.1 99.6 35.8 100.7C41.3 109.3 49.2 119 60.6 117.6C63.4 117.3 66 116.3 68.4 114.8C73.5 121.1 82.8 122.9 90.4 119.6C94.3 117.9 98.1 114.8 100.4 111C101.1 111.2 101.7 111.4 102.4 111.4C114.8 112.7 121 100.1 124.8 90.5C125.3 88.8 122.6 87.9 121.9 89.6ZM67.5 100.5C69 98.4 73.8 96.7 75.1 100.7C75.6 102.3 74.3 104.9 73.5 106.3C72.3 108.4 70.6 110.2 68.6 111.6C66.1 108.3 65 104.1 67.5 100.5ZM94.5 101.4C94.3 100.3 94.4 99.2 94.8 98.2C95.9 97 96.7 97.1 97.3 98.3C98.7 99.3 99.1 101.3 99.3 102.9C99.4 104.4 99.1 105.9 98.5 107.3C96.3 106.2 94.9 104.3 94.5 101.4Z" fill="white"/>
<path d="M154.2 155.5C148.5 167.8 139.7 182.5 124.5 183.5C122.4 183.6 120.3 183.4 118.2 182.8C120.9 175.5 119.5 165.5 111.3 162.6C101.5 159.1 103.8 173.5 106.9 177.9C108.8 180.7 111.2 182.7 113.9 184.1C108.9 193.9 95.5 199.9 85.4 199.9C79.3 199.9 73.1 197.8 68.9 193.4C70.7 192.1 72.2 190.5 73.4 188.6C75.3 185.4 75.9 181.2 73.4 178.1C71.4 175.6 67.7 174.5 64.9 176.3C59.4 179.9 60.9 186.9 64 192.2C59 194.4 52.9 194.2 48 192.1C40.8 188.9 35.7 181.9 32.2 175.1C31.9 174.4 30.7 174.8 30.9 175.5C33.7 184.7 39.9 193.1 49.4 196.1C54.7 197.8 60.9 197.5 66 195.2C66.6 196 67.3 196.7 67.9 197.2C82.6 210.2 108.3 201.9 117 185.5C122.3 187.2 128.2 186.9 133.6 184.7C145.5 179.8 151.9 167.8 156.9 156.7C157.8 154.7 155 153.9 154.2 155.5ZM64.8 183.4C64.9 182.8 65.3 180.4 65.8 180.1C66.7 180.2 67.6 180.4 68.5 180.5C70.6 179.9 71.6 180.5 71.3 182.2C72 184.7 70 187.5 68.3 189.1C67.8 189.6 67.3 190 66.7 190.4C65.4 188.4 64.5 185.9 64.8 183.4ZM108.1 174.6C107.4 173.2 106.5 171 106.8 169.4C106.8 169.1 106.8 168.7 106.8 168.4C108.2 167.7 109.5 167 110.9 166.3C111.5 166.4 112.4 167.5 112.8 167.9C115.1 170.3 116.2 173.7 116 177C115.9 178.6 115.6 180.1 115.1 181.5C112.1 180 109.6 177.6 108.1 174.6Z" fill="white"/>
<path d="M206.7 242.4C202.5 251.7 195.9 260.1 186.8 265C183.4 266.8 179.6 268 175.8 268C175.5 268 175.2 268 174.8 267.9C176.4 263.4 176.7 258.2 172.6 255.1C168 251.6 161.2 254.2 161.8 260.4C162.2 265.2 166 268.5 170.3 270C170.2 270.2 170 270.5 169.9 270.7C167.5 274.8 164.1 278.2 160.3 281C152 286.9 141.4 290.3 131.2 290.1C122.6 290 113.8 286.6 108.9 279.5C111.2 276.9 113.1 274 114.3 270.8C115.8 266.9 115.8 259.6 109.9 259.8C104.7 260 102.5 266.7 102.9 271C103.2 273.9 104.1 276.6 105.5 279.2C105.3 279.4 105.1 279.6 105 279.7C98.7 285.4 90.1 288.7 81.7 289.4C73.3 290.1 62.7 288 57.1 281.1C60.4 278.9 63.3 275.9 64.4 272.2C65.7 267.8 63.1 262.1 57.8 263.5C52.9 264.8 50.8 270.6 51.7 275.1C52 276.8 52.6 278.3 53.4 279.7C51.4 280.7 49.4 281.5 47.5 281.9C35.6 284.7 24 277.1 20.7 265.6C20.2 263.9 17.5 264.4 18 266.2C21.8 280.1 36.1 288.8 50.1 284.4C51.8 283.9 53.5 283.1 55.2 282.2C57.5 285.1 60.6 287.3 63.9 288.9C75.9 294.6 91.6 292.7 102.5 285.3C104.2 284.2 105.7 282.8 107.2 281.4C109.1 284 111.4 286.3 114.1 288.1C126.8 296.6 145.3 293.6 158 286.6C164.5 283 170.2 277.8 173.7 271.3C173.8 271.1 173.9 270.9 174 270.6C174.3 270.6 174.6 270.7 174.9 270.7C190.9 271.7 203.8 256.5 208.5 242.7C208.4 242 207.1 241.6 206.7 242.4ZM54 271.3C54.3 270.1 55.1 268.2 56.3 267.5C57.4 266.1 58.5 266.3 59.6 268C61.6 268.5 62.1 269.6 61.2 271.3C60.3 274.3 58 276.8 55.1 278.7C54 276.4 53.3 273.7 54 271.3ZM106.4 275.3C105.3 272.6 104.7 269.2 105.7 266.4C106.1 265.3 107 263.7 107.9 263.1C112 260.6 112.7 264.6 112.6 266.7C112.4 270.3 109.9 274.2 107.3 277.1C107.1 276.6 106.7 276 106.4 275.3ZM165 261.1C164.6 256.5 168.1 256.4 170.2 257.7C172.4 259.1 172.8 261.5 172.5 263.9C172.4 265.1 172 266.3 171.5 267.4C168.4 266.5 165.3 264.5 165 261.1Z" fill="white"/>
<path d="M243.2 319.5C235.6 331.4 225.7 346.4 209.9 346.5C206.9 346.5 203.8 346 201 344.8C201.2 344.2 201.4 343.7 201.5 343.1C203 337.5 202.3 328.9 194.7 328.9C188.4 328.9 188.3 335.3 190.6 339.6C192 342.2 194 344.3 196.3 345.9C195.7 347.2 195 348.5 194.2 349.8C186.8 362 172.9 368.9 158.7 366.8C151.7 365.8 144.2 362.8 139.6 357.3C139.4 357.1 139.3 356.9 139.1 356.7C141.9 350.3 142.3 342.9 137.7 337.2C137.1 336.5 135.8 336.4 135.1 337.1C129.1 343.3 130.6 351 135 357.3C131.1 363.8 124.3 369.6 119.2 372.3C107.4 378.7 93.1 378.8 81.1 372.7C78.1 371.2 75.1 369.2 72.5 366.9C76.6 363.1 79.8 358 78.2 352.4C76.6 346.8 70 342.9 64.9 347C58 352.6 62.2 361.7 67.1 366.9C60.8 371.4 52.3 373.3 45 372.9C32.8 372.3 22.2 366.2 15.4 356.2C15 355.6 14 356.3 14.3 356.9C20.5 369.3 35.2 376 48.7 375.7C55.7 375.6 62.7 373.7 68.6 369.8C68.9 369.6 69.2 369.4 69.5 369.2C81.5 380.1 99 383.8 114.4 378.4C123.5 375.2 131.8 369 137 360.8C137.1 360.6 137.2 360.4 137.3 360.2C139.9 363.1 143 365.5 146 367.1C160.1 374.3 177.4 372.3 189.4 362.1C193.9 358.3 197.5 353.3 199.8 347.9C201.5 348.6 203.2 349.2 205 349.6C224.5 353.5 237 335.9 245.9 321.4C247.1 319.5 244.3 317.6 243.2 319.5ZM66.5 359.8C65.3 357.6 64.5 354.8 65.4 352.4C66.4 350 69.2 348.1 71.7 349.5C75.3 351.6 75.2 356.2 73.6 359.4C72.6 361.3 71.3 362.9 69.9 364.3C68.6 363 67.4 361.5 66.5 359.8ZM136.2 341.5C138.3 345.2 138.2 349.2 136.8 353.1C134.9 349.5 134.1 345.1 136.2 341.5ZM194.2 339.7C193 338.1 190.2 333.4 193.9 332.2C198.6 330.7 198.8 337.8 198.2 340.4C198 341.2 197.8 342.1 197.5 342.9C196.3 342.1 195.1 341 194.2 339.7Z" fill="white"/>
<path d="M59.3 0.999914L65.3 10.6999C65.8 11.4999 66.9 11.8999 67.8 11.4999L78.4 7.29991C80.2 6.59991 81.9 8.49991 81 10.1999L75.6 20.1999C75.1 21.0999 75.3 22.1999 76.1 22.7999L85 29.8999C86.5 31.0999 85.7 33.4999 83.8 33.5999L72.4 33.8999C71.4 33.8999 70.6 34.6999 70.4 35.5999L68.7 46.8999C68.4 48.7999 65.9 49.2999 64.9 47.6999L59 37.9999C58.5 37.1999 57.4 36.7999 56.5 37.1999L45.9 41.3999C44.1 42.0999 42.4 40.1999 43.3 38.4999L48.7 28.4999C49.2 27.5999 49 26.4999 48.2 25.8999L39.3 18.7999C37.8 17.5999 38.6 15.1999 40.5 15.0999L51.9 14.7999C52.9 14.7999 53.7 13.9999 53.9 13.0999L55.6 1.79991C55.8 -0.100086 58.3 -0.700086 59.3 0.999914Z" fill="#FFBD57"/>
</g>
<defs>
<clipPath id="clip0_3526_5033">
<rect width="271.1" height="439.7" fill="white"/>
</clipPath>
</defs>
</svg>
