<svg width="272" height="440" viewBox="0 0 272 440" fill="none" xmlns="http://www.w3.org/2000/svg">
<g clip-path="url(#clip0_3526_5033)">
<path d="M148.665 333.025L122.007 332.66C114 332.598 107.456 338.995 107.3 346.982L106.396 419.271C106.334 427.278 112.71 433.916 120.718 433.978L147.375 434.343C155.382 434.405 161.926 428.008 162.083 420.021L162.986 347.732C163.163 339.651 156.672 333.087 148.665 333.025Z" fill="#E1A060"/>
<path d="M265.96 371.862L216.822 298.369L225.113 298.493C236.269 298.647 243.05 286.163 236.853 276.89L190.142 206.798L196.554 206.909C207.92 207.01 214.668 194.221 208.072 184.96L169.232 130.547C180.199 130.66 186.972 118.669 181.194 109.289L145.829 52.5631C142.596 47.4025 135.103 47.2544 131.807 52.3785L95.1669 108.263C89.1068 117.438 95.6523 129.659 106.619 129.772L66.4534 183.204C59.6164 192.309 65.9971 205.286 77.3424 205.482L83.7549 205.592L35.2974 274.348C28.8591 283.441 35.3016 296.135 46.4784 296.194L54.7695 296.318L3.76554 368.579C-2.67267 377.672 3.76983 390.366 14.926 390.52L134.61 392.05L254.295 393.58C265.492 393.545 272.253 381.155 265.96 371.862Z" fill="#9FC76E"/>
<path d="M255.212 355.755C252.332 359.88 248.631 363.232 244.096 365.412C232.657 370.643 216.661 364.978 213.474 352.796C208.248 363.144 196.237 369.636 184.646 368.298C173.149 366.98 162.87 357.808 160.179 346.527C153.327 354.341 140.977 357.393 132.109 352.192C123.146 346.97 120.236 333.067 127.405 325.618C120.274 329.708 112.914 333.946 104.774 334.945C96.6348 335.943 87.3548 332.633 83.8197 325.228C80.8348 318.933 82.4626 311.465 84.7025 304.823C92.2622 282.408 105.37 261.796 122.578 245.544C115.898 246.663 110.92 238.151 112.835 231.637C114.656 225.102 120.483 220.629 125.998 216.681C118.402 222.453 106.341 216.457 103.271 207.37C100.202 198.284 103.771 188.269 108.975 180.293C114.18 172.317 120.962 165.279 125.378 156.834C121.125 161.354 112.812 155.878 112.692 149.613C112.572 143.348 116.969 138.167 120.906 133.282C124.843 128.397 128.628 122.389 126.966 116.382C121.945 120.338 113.94 115.722 112.225 109.505C110.511 103.289 113.108 96.8245 115.771 90.9684C122.187 76.5231 129.413 62.4523 137.24 48.8094C135.089 49.1329 133.038 50.3691 131.692 52.4524L95.0518 108.337C88.9917 117.512 95.5372 129.733 106.504 129.846L66.3383 183.278C59.5013 192.383 65.882 205.36 77.2272 205.555L83.6398 205.666L35.2974 274.348C28.8592 283.441 35.3017 296.135 46.4784 296.194L54.7695 296.318L3.76555 368.579C-2.67267 377.672 3.76983 390.366 14.926 390.52L134.61 392.05L254.295 393.58C265.451 393.734 272.232 381.25 266.034 371.977L255.212 355.755Z" fill="#769653"/>
<path d="M162.484 392.283L106.541 403.162L106.683 391.607L162.484 392.283Z" fill="#BF7341"/>
<path d="M181.642 100.871C177.751 106.459 173.546 112.573 166.754 114.658C164.102 115.466 161.048 115.394 158.578 114.46C159.047 113.671 159.496 112.976 159.87 112.167C161.772 107.531 160.575 102.121 155.947 99.7259C155.421 99.4132 154.813 99.4786 154.426 99.8895C149.689 103.907 150.503 110.62 154.266 114.708C153.262 115.678 152.185 116.532 151.149 117.198C145.622 120.746 138.342 121.437 132.712 117.734C130.966 116.66 129.269 114.904 128.033 112.852C129.353 112.249 130.599 111.53 131.676 110.675C134.407 108.597 138.294 104.394 137.239 100.599C136.271 97.3184 132.1 96.013 129.156 97.2528C125.028 98.9276 123.915 104.032 124.225 108.061C124.356 109.278 124.602 110.421 124.963 111.49C111.819 115.457 104.09 103.672 99.9436 93.1629C99.5086 91.9788 97.527 92.438 97.962 93.6221C101.389 102.885 106.859 113.683 117.924 114.709C120.633 115.002 123.297 114.592 125.874 113.669C129.397 120.675 137.818 124.293 145.683 122.74C149.72 121.936 153.951 119.789 156.908 116.67C157.529 117.004 158.055 117.316 158.716 117.461C170.17 121.245 178.628 110.611 184.198 102.319C185.021 100.815 182.654 99.4079 181.642 100.871ZM127.97 99.9652C129.821 98.2891 134.709 97.6711 135.114 101.72C135.257 103.336 133.492 105.526 132.447 106.684C130.88 108.422 128.902 109.774 126.723 110.685C125.04 107.05 124.865 102.853 127.97 99.9652ZM153.309 106.38C153.346 105.298 153.668 104.279 154.252 103.416C155.539 102.509 156.275 102.768 156.594 104.026C157.712 105.26 157.678 107.233 157.537 108.787C157.323 110.225 156.73 111.581 155.874 112.781C154.021 111.288 153.089 109.203 153.309 106.38Z" fill="white"/>
<path d="M198.597 169.824C190.674 180.277 179.326 192.36 164.751 190.173C162.745 189.835 160.801 189.213 158.94 188.213C162.996 181.868 163.734 172.127 156.579 167.695C148.036 162.367 147.243 176.454 149.267 181.252C150.486 184.291 152.343 186.676 154.607 188.556C147.861 196.79 133.957 199.701 124.409 197.619C118.643 196.362 113.215 193.1 110.151 188.075C112.12 187.217 113.868 186.013 115.394 184.464C117.849 181.831 119.282 177.984 117.557 174.538C116.182 171.763 112.911 169.961 109.893 171.085C103.952 173.355 103.928 180.282 105.766 185.931C100.586 186.98 94.8607 185.534 90.6613 182.539C84.5143 178.03 81.1355 170.362 79.228 163.213C79.0887 162.489 77.8719 162.62 77.9167 163.323C78.6679 172.597 82.798 181.815 91.1605 186.609C95.8204 189.308 101.743 190.302 107.038 189.179C107.441 190.059 107.958 190.865 108.422 191.461C119.64 206.779 145.645 204.229 157.249 190.518C161.909 193.217 167.548 194.149 173.106 193.182C185.366 191.002 193.888 180.977 200.902 171.514C202.165 169.809 199.683 168.476 198.597 169.824ZM108.336 177.777C108.554 177.23 109.426 175.044 109.961 174.863C110.791 175.143 111.601 175.518 112.431 175.798C114.54 175.663 115.361 176.436 114.727 177.982C114.874 180.489 112.406 182.724 110.47 183.886C109.894 184.256 109.339 184.531 108.689 184.785C107.872 182.627 107.537 180.078 108.336 177.777ZM151.082 178.38C150.708 176.912 150.311 174.647 150.924 173.196C150.986 172.913 151.069 172.535 151.13 172.251C152.598 171.878 153.971 171.484 155.439 171.111C155.985 171.329 156.61 172.554 156.905 173.015C158.585 175.757 158.924 179.198 158.055 182.277C157.631 183.769 157.038 185.125 156.277 186.345C153.75 184.309 151.881 181.525 151.082 178.38Z" fill="white"/>
<path d="M230.32 262.791C224.434 270.717 216.464 277.298 206.851 280.055C203.266 281.056 199.427 281.407 195.835 280.624C195.551 280.562 195.267 280.501 194.91 280.324C197.35 276.399 198.705 271.545 195.468 267.77C191.84 263.514 184.876 264.57 184.166 270.555C183.555 275.175 186.467 279.078 190.223 281.382C190.087 281.55 189.837 281.792 189.701 281.961C186.587 285.342 182.672 287.856 178.503 289.72C169.441 293.587 158.72 294.617 149.119 292.326C141.01 290.459 133.391 285.432 130.222 277.71C132.932 275.726 135.326 273.376 137.12 270.599C139.341 267.221 140.846 260.32 135.227 259.293C130.27 258.411 126.81 264.291 126.302 268.439C125.988 271.242 126.282 273.98 127.07 276.726C126.84 276.874 126.609 277.022 126.494 277.096C119.364 281.186 110.554 282.533 102.469 281.464C94.3843 280.395 84.7966 276.226 80.9245 268.549C84.4974 267.149 87.8571 264.911 89.6594 261.64C91.7949 257.748 90.5116 251.824 85.2129 252.055C80.3129 252.275 77.1325 257.325 77.0561 261.764C76.9894 263.433 77.2475 264.975 77.7153 266.463C75.6185 266.996 73.563 267.34 71.6845 267.327C59.8581 267.522 50.4583 257.947 49.7084 246.396C49.586 244.686 46.9306 244.602 47.0324 246.407C47.7604 260.33 59.4859 271.501 73.6272 270.226C75.3373 270.104 77.1092 269.698 78.9017 269.197C80.4784 272.413 82.9556 275.131 85.7455 277.324C95.9149 285.185 111.148 286.624 122.977 281.874C124.811 281.185 126.517 280.17 128.224 279.156C129.484 282.005 131.184 284.654 133.366 286.912C143.62 297.564 161.727 298.54 175.175 294.54C182.062 292.476 188.521 288.735 193.169 283.311C193.305 283.143 193.441 282.974 193.597 282.711C193.881 282.773 194.144 282.929 194.427 282.991C209.347 287.233 224.674 275.523 231.96 263.446C232.01 262.763 230.863 262.117 230.32 262.791ZM80.0134 258.646C80.5442 257.573 81.692 255.942 82.9707 255.528C84.299 254.431 85.2976 254.846 85.9872 256.68C87.7748 257.565 88.0208 258.708 86.8198 260.129C85.3508 262.78 82.6614 264.669 79.5284 265.868C78.9625 263.467 78.8571 260.77 80.0134 258.646ZM128.724 273.225C128.241 270.446 128.374 267.108 129.897 264.667C130.501 263.71 131.682 262.382 132.656 262.001C137.047 260.482 136.885 264.408 136.358 266.372C135.427 269.734 132.26 272.906 129.204 275.112C129.118 274.598 128.864 273.948 128.724 273.225ZM187.047 271.876C187.617 267.445 190.946 268.072 192.663 269.733C194.454 271.51 194.338 273.861 193.56 276.068C193.218 277.182 192.593 278.234 191.893 279.171C189.148 277.681 186.63 275.152 187.047 271.876Z" fill="white"/>
<path d="M248.938 343.197C239.301 352.881 226.852 365.021 211.895 361.859C209.059 361.241 206.231 360.13 203.832 358.418C204.144 357.892 204.436 357.461 204.655 356.914C207.227 351.93 208.337 343.656 201.152 342.089C195.197 340.791 193.784 346.821 195.072 351.36C195.859 354.106 197.317 356.503 199.162 358.49C198.327 359.595 197.397 360.68 196.373 361.744C186.864 371.752 172.302 375.411 159.311 370.499C152.9 368.112 146.428 363.73 143.213 357.583C143.065 357.353 143.011 357.143 142.864 356.913C146.829 351.44 148.732 344.527 145.558 338.19C145.135 337.405 143.927 337.043 143.121 337.56C136.171 342.185 136.003 349.773 138.864 356.635C133.838 361.976 126.215 366.058 120.837 367.559C108.363 371.178 94.8244 368.326 84.7374 360.087C82.2105 358.05 79.7867 355.542 77.8027 352.832C82.4616 350.084 86.5376 345.922 86.179 340.299C85.8204 334.675 80.3848 329.629 74.7188 332.453C67.0421 336.326 69.1373 345.793 72.6979 351.719C65.8151 354.675 57.3883 354.719 50.5698 352.837C39.1604 349.756 30.3968 341.805 26.0292 330.951C25.7747 330.301 24.6851 330.757 24.8451 331.386C28.151 344.385 40.6668 353.748 53.4905 356.246C60.1285 357.594 67.1373 357.24 73.5184 354.769C73.8432 354.642 74.168 354.515 74.4928 354.388C83.5907 367.165 99.3716 374.268 115.042 372.337C124.304 371.187 133.428 367.036 140.034 360.356C140.169 360.187 140.305 360.019 140.441 359.851C142.301 363.128 144.737 366.035 147.243 368.166C159.089 377.878 175.855 379.552 189.301 372.382C194.338 369.717 198.771 365.733 202.058 361.102C203.521 362.114 205.005 363.031 206.624 363.78C224.254 371.485 239.697 357.423 251.099 345.55C252.625 344.001 250.369 341.628 248.938 343.197ZM73.5938 344.883C72.9127 342.556 72.7334 339.745 74.0787 337.661C75.5186 335.599 78.557 334.379 80.6319 336.218C83.6024 338.945 82.56 343.273 80.388 345.968C79.0512 347.558 77.4926 348.803 75.8806 349.838C74.9196 348.341 74.0943 346.676 73.5938 344.883ZM143.254 341.946C144.477 345.877 143.558 349.637 141.431 353.036C140.377 349.241 140.527 344.917 143.254 341.946ZM198.454 352.196C197.65 350.436 195.971 345.416 199.716 345.044C204.468 344.595 203.194 351.348 202.091 353.682C201.737 354.397 201.363 355.207 200.915 355.901C199.945 354.898 199.037 353.61 198.454 352.196Z" fill="white"/>
<path d="M140.721 4.21506L144.395 14.6211C144.702 15.4804 145.66 16.0852 146.593 15.8925L157.479 14.1064C159.325 13.8155 160.54 15.962 159.339 17.3836L152.174 25.7242C151.516 26.4719 151.478 27.553 152.111 28.2851L159.061 36.8308C160.232 38.2743 158.981 40.3783 157.165 40.0813L146.326 38.0158C145.381 37.8098 144.459 38.4012 144.085 39.2108L140.149 49.5427C139.474 51.277 137.008 51.2345 136.392 49.5159L132.814 39.1305C132.506 38.2712 131.548 37.6664 130.615 37.8591L119.729 39.6452C117.883 39.936 116.668 37.7896 117.869 36.368L125.034 28.0274C125.692 27.2797 125.73 26.1986 125.097 25.4665L118.147 16.9208C116.976 15.4773 118.227 13.3733 120.044 13.6703L130.882 15.7358C131.828 15.9418 132.749 15.3504 133.123 14.5408L137.059 4.2089C137.639 2.45398 140.126 2.40193 140.721 4.21506Z" fill="#FFBD57"/>
</g>
<defs>
<clipPath id="clip0_3526_5033">
<rect width="271.1" height="439.7" fill="white"/>
</clipPath>
</defs>
</svg>
