<svg width="148" height="8" viewBox="0 0 148 8" fill="none" xmlns="http://www.w3.org/2000/svg">
<circle cx="62" cy="3.66667" r="3.66667" fill="#FFC312"/>
<circle cx="83.9999" cy="3.66667" r="3.66667" fill="#FFC312"/>
<path d="M73.5 3.13397C74.1667 3.51887 74.1667 4.48112 73.5 4.86602L70.5 6.59807C69.8333 6.98297 69 6.50184 69 5.73204L69 2.26795C69 1.49815 69.8333 1.01702 70.5 1.40192L73.5 3.13397Z" fill="#FFC312"/>
<path d="M95.5 3.13397C96.1667 3.51887 96.1667 4.48112 95.5 4.86602L92.5 6.59807C91.8333 6.98297 91 6.50184 91 5.73204L91 2.26795C91 1.49815 91.8333 1.01702 92.5 1.40192L95.5 3.13397Z" fill="#FFC312"/>
<path d="M50.5 3.13397C49.8333 3.51887 49.8333 4.48112 50.5 4.86602L53.5 6.59807C54.1667 6.98297 55 6.50184 55 5.73204L55 2.26795C55 1.49815 54.1667 1.01702 53.5 1.40192L50.5 3.13397Z" fill="#FFC312"/>
<path d="M72.5 3.13397C71.8333 3.51887 71.8333 4.48112 72.5 4.86602L75.5 6.59807C76.1667 6.98297 77 6.50184 77 5.73204L77 2.26795C77 1.49815 76.1667 1.01702 75.5 1.40192L72.5 3.13397Z" fill="#FFC312"/>
<rect x="98" y="3" width="50" height="2" rx="1" fill="#FFC312"/>
<rect y="3" width="48" height="2" rx="1" fill="#FFC312"/>
</svg>
