<svg width="52" height="66" viewBox="0 0 52 66" fill="none" xmlns="http://www.w3.org/2000/svg">
<g clip-path="url(#clip0_3518_4922)">
<path d="M48.1543 31.7546L5.46787 31.6633C5.02952 31.6651 4.67603 32.0194 4.65474 32.4635L4.64567 62.8084C4.64806 63.2485 5.00146 63.6038 5.44388 63.6258L48.1026 63.6973C48.5409 63.6956 48.8944 63.3413 48.9157 62.8971L48.9288 32.576C48.946 32.1081 48.5926 31.7528 48.1543 31.7546Z" fill="#F2565A"/>
<path d="M49.7853 37.5679L3.80923 37.4782C3.37089 37.48 3.01749 37.1246 3.01102 36.6608L3.01616 23.0543C3.01377 22.6143 3.36727 22.26 3.82928 22.2541L49.8053 22.3438C50.2437 22.342 50.5971 22.6974 50.6035 23.1612L50.5984 36.7677C50.6008 37.2077 50.2236 37.5661 49.7853 37.5679Z" fill="#AD3138"/>
<path d="M44.0317 16.5315C42.6084 14.7691 40.1954 14.7671 38.0372 15.1129C40.047 13.6179 42.0945 11.774 42.5593 9.36956C43.1164 6.50882 40.2433 5.38669 37.8801 5.81659C34.9251 6.34802 32.3143 8.45991 30.4864 10.7311C29.8471 11.5505 29.2634 12.4092 28.7351 13.3073C28.7866 12.6133 28.8381 11.9193 28.866 11.2294C28.9119 9.50856 28.8118 7.78835 28.5696 6.0925C28.3682 4.63436 28.17 3.0533 27.5506 1.71581C27.0553 0.675146 26.1853 -0.276762 24.969 -0.263865C23.7291 -0.246906 22.8539 0.759707 22.3542 1.82425C21.0233 4.71987 20.8489 8.24905 21.2174 11.3915C21.449 13.3094 21.8699 15.1948 22.4288 17.0321C21.8126 16.2813 21.1728 15.5346 20.4741 14.8714C18.6957 13.17 15.8325 10.9694 13.2171 11.4915C10.9249 11.9092 9.8887 14.5341 10.3463 16.6334C10.9051 19.1804 13.4174 20.7559 15.6417 21.6468C18.6813 22.8872 22.0239 23.1947 25.2393 22.6186C25.2293 24.4066 25.2429 26.1906 25.2802 27.9706C25.2843 27.9943 25.2843 27.9943 25.2884 28.0181C25.3114 32.9817 25.2829 37.9296 25.2823 42.8972C25.2569 49.1415 25.3026 55.3736 25.1548 61.6145C25.1042 61.7455 25.0772 61.8725 25.078 62.0192C25.0845 62.483 25.0869 62.923 25.117 63.3828C25.0695 64.8102 27.2612 64.8013 27.3128 63.3976C27.3341 62.9535 27.3513 62.4856 27.3489 62.0456C27.3481 61.8989 27.3236 61.7562 27.2796 61.6415C27.1588 55.3977 27.1882 49.1772 27.1662 42.941C27.1473 38.0012 27.148 33.0336 27.1764 28.0857C27.1723 28.0619 27.1919 28.0341 27.1879 28.0103C27.2387 26.46 27.2422 24.9178 27.2456 23.3755C31.9039 25.2436 37.3363 24.9479 41.6702 22.3691C43.7054 21.1634 45.9521 18.9182 44.0317 16.5315ZM35.9338 8.10813C36.9419 7.59259 38.0652 7.17965 39.199 7.25431C40.4038 7.31678 41.3392 7.93936 41.0068 9.26885C40.373 11.8246 37.4292 13.7 35.403 15.0998C34.8797 15.4588 34.3524 15.794 33.825 16.1292C31.7238 16.8078 29.7426 17.7594 27.8772 18.9604C29.5716 14.6321 31.6529 10.2863 35.9338 8.10813ZM22.8452 4.97012C23.0682 3.85516 23.3443 2.33957 24.1966 1.4837C25.3199 0.361105 26.2764 1.95889 26.5897 2.93289C27.4334 5.57778 27.5407 8.61817 27.4293 11.378C27.3024 14.1894 26.7804 16.9707 25.8985 19.6424C25.7466 20.0355 25.6225 20.4484 25.4706 20.8415C23.3587 15.9182 21.7449 10.3466 22.8452 4.97012ZM16.0598 20.1068C13.8552 19.1881 10.9772 17.1859 11.9572 14.375C13.151 10.9645 17.4361 13.9244 19.1027 15.4003C21.0314 17.125 22.5159 19.2439 23.9139 21.4267C21.2332 21.5685 18.5534 21.1473 16.0598 20.1068ZM42.8591 19.4978C42.0394 20.5438 40.5782 21.2595 39.3725 21.76C38.0329 22.3324 36.6093 22.699 35.1726 22.8476C32.3507 23.1604 29.4929 22.6963 26.9349 21.4223C26.9349 21.4223 26.9308 21.3985 26.9545 21.3944C26.9855 21.2912 27.0206 21.2118 27.0517 21.1086C27.1504 21.1161 27.2451 21.0999 27.3594 21.0558C29.9684 20.0698 32.4574 18.8108 34.8068 17.3066C35.2011 17.19 35.6191 17.0694 36.0411 16.9725C37.5635 16.6134 39.2084 16.2578 40.7691 16.4061C42.2392 16.5943 44.0748 17.9189 42.8591 19.4978Z" fill="#FFBD57"/>
<path d="M10.9293 39.6335C8.24786 39.6286 8.25464 43.7874 10.9361 43.7923C13.5939 43.8013 13.6067 39.6146 10.9293 39.6335Z" fill="#9FC76E"/>
<path d="M20.9299 48.6359C18.2485 48.631 18.2552 52.7899 20.9367 52.7948C23.5945 52.8037 23.6114 48.6408 20.9299 48.6359Z" fill="#9FC76E"/>
<path d="M11.2633 56.0693C8.58185 56.0644 8.58862 60.2232 11.2701 60.2281C13.9279 60.2371 13.9448 56.0742 11.2633 56.0693Z" fill="#9FC76E"/>
<path d="M33.5974 39.6599C30.916 39.655 30.9227 43.8138 33.6042 43.8187C36.262 43.8276 36.2789 39.6648 33.5974 39.6599Z" fill="#9FC76E"/>
<path d="M43.6257 48.682C40.9443 48.6771 40.951 52.8359 43.6325 52.8408C46.2903 52.8497 46.2835 48.6909 43.6257 48.682Z" fill="#9FC76E"/>
<path d="M33.9354 56.1193C31.254 56.1144 31.2607 60.2732 33.9422 60.2782C36.6237 60.2831 36.6169 56.1242 33.9354 56.1193Z" fill="#9FC76E"/>
</g>
<defs>
<clipPath id="clip0_3518_4922">
<rect width="52" height="66" fill="white"/>
</clipPath>
</defs>
</svg>
