<svg width="765" height="73" viewBox="0 0 765 73" fill="none" xmlns="http://www.w3.org/2000/svg">
<path d="M38.0007 70.5C26.8764 53.3223 27.5012 42.5 13.0006 33C-1.49992 23.5 2.00073 0 2.00073 0H383.001C383.001 14 378.001 13.1274 378.001 22.5C378.001 22.5 376.958 42.6393 367.001 46C359.201 48.6323 351.822 39 349.501 35.5C347.179 32 343.674 20.3078 337.501 22.5C329.396 25.3782 334.078 38.6255 325.501 38C318.191 37.4669 319.795 26.7138 312.501 26C302.666 25.0377 310.329 47.0218 300.501 46C294.307 45.3561 299.499 37.1713 293.501 35.5C279.641 31.6386 292.279 56 280.779 53.5C258.279 43.5 256.001 32.6365 248.001 33C241.832 33.2803 239.051 39.236 233.001 38C224.077 36.1768 230.109 17.9888 221.001 18C213.12 18.0097 220.001 32 207.501 33C200.143 33.5886 204.243 19.7358 196.001 18C180.959 14.8325 190.001 52 175.001 53.5C168.507 54.1494 171.29 45.2407 165.001 43.5C149.665 39.2556 140.984 63.9106 126.5 70.5C99.5584 82.7569 123.82 38.9701 113.001 35.5C107.895 33.8624 110.001 43 104.501 43C99.0007 43 93 51 87.5 46C82.11 35.1089 77.4759 48.8875 70.5007 48.5C62.7022 48.0668 62.1733 37.9611 54.5007 36.5C37.3679 33.2373 62.5007 70.5 38.0007 70.5Z" fill="white" fill-opacity="0.5"/>
<path d="M408.5 46C397.376 28.8223 392.501 38.5 378 29C363.5 19.5 383.372 0 383.372 0H764.372C764.372 14 759.372 13.1274 759.372 22.5C759.372 22.5 759.458 37.6393 749.5 41C741.7 43.6323 733.193 39 730.872 35.5C728.55 32 725.045 20.3078 718.872 22.5C710.767 25.3782 715.449 38.6255 706.872 38C699.562 37.4669 701.166 26.7138 693.872 26C684.037 25.0377 691.7 47.0218 681.872 46C675.678 45.3561 680.87 37.1713 674.872 35.5C661.012 31.6386 666.5 59.5 655 57C632.5 47 637.372 32.6365 629.372 33C623.203 33.2803 620.422 39.236 614.372 38C605.448 36.1768 611.48 17.9888 602.372 18C594.491 18.0097 601.372 32 588.872 33C581.514 33.5886 585.614 19.7358 577.372 18C562.33 14.8325 571.372 52 556.372 53.5C549.878 54.1494 552.661 45.2407 546.372 43.5C531.036 39.2556 525.484 61.4106 511 68C484.059 80.2569 505.191 38.9701 494.372 35.5C489.266 33.8624 491.372 43 485.872 43C480.372 43 479.872 43 474.372 38C468.982 27.1089 458.847 41.3875 451.872 41C444.073 40.5668 443.544 30.4611 435.872 29C418.739 25.7373 433 46 408.5 46Z" fill="white" fill-opacity="0.5"/>
<path d="M37.0006 56.5C25.8762 39.3223 26.501 28.5 12.0005 19C-2.5001 9.5 1.00055 0 1.00055 0H382.001C375 4.5 378.5 1.5 375 6.5C371.5 11.5 376.958 31.1393 367.001 34.5C359.201 37.1323 350.822 25 348.501 21.5C346.179 18 342.673 6.30785 336.501 8.5C328.396 11.3782 333.078 24.6255 324.501 24C317.19 23.4669 318.795 12.7138 311.501 12C301.666 11.0377 309.329 33.0218 299.501 32C293.307 31.3561 298.499 23.1713 292.501 21.5C278.641 17.6386 287.501 59 276.001 56.5C253.501 46.5 255.001 18.6365 247.001 19C240.832 19.2803 238.05 25.236 232.001 24C223.076 22.1768 229.109 3.98883 220.001 4C212.12 4.00966 219.001 18 206.501 19C199.143 19.5886 203.243 5.73577 195.001 4C179.959 0.832542 189.001 38 174.001 39.5C167.507 40.1494 170.29 31.2407 164.001 29.5C148.665 25.2556 162.484 56.9106 148.001 63.5C121.059 75.7569 122.82 24.9701 112.001 21.5C106.895 19.8624 109.001 29 103.501 29C98.0005 29 97.5005 29 92.0005 24C86.6105 13.1089 76.4757 27.3875 69.5005 27C61.7021 26.5668 61.1732 16.4611 53.5006 15C36.3677 11.7373 61.5006 56.5 37.0006 56.5Z" fill="white"/>
<path d="M407.5 32C396.376 14.8223 395.501 27 381 17.5C366.499 8 382.001 0 382.001 0H763.372C763.372 14 758.372 -0.872583 758.372 8.5C758.372 8.5 758.458 23.6393 748.5 27C740.7 29.6323 732.193 25 729.872 21.5C727.55 18 724.044 6.30785 717.872 8.5C709.767 11.3782 714.449 24.6255 705.872 24C698.561 23.4669 700.166 12.7138 692.872 12C683.037 11.0377 690.7 33.0218 680.872 32C674.678 31.3561 679.87 23.1713 673.872 21.5C660.012 17.6386 665.5 45.5 654 43C631.5 33 636.372 18.6365 628.372 19C622.203 19.2803 619.421 25.236 613.372 24C604.447 22.1768 610.48 3.98883 601.372 4C593.491 4.00966 600.372 18 587.872 19C580.514 19.5886 584.614 5.73577 576.372 4C561.33 0.832542 570.372 38 555.372 39.5C548.878 40.1494 551.661 31.2407 545.372 29.5C530.036 25.2556 524.484 47.4106 510 54C483.058 66.2569 504.191 24.9701 493.372 21.5C488.266 19.8624 490.372 29 484.872 29C479.372 29 478.872 29 473.372 24C467.982 13.1089 457.847 27.3875 450.872 27C443.073 26.5668 442.544 16.4611 434.872 15C417.739 11.7373 432 32 407.5 32Z" fill="white"/>
</svg>
