<svg width="1440" height="71" viewBox="0 0 1440 71" fill="none" xmlns="http://www.w3.org/2000/svg">
<path d="M1440 29.2432C1440 29.2432 1439.93 29.2489 1439.8 29.2599C1439.76 29.2638 1439.7 29.2684 1439.64 29.2736C1434.84 29.6774 1382.86 33.9719 1343.96 33.9719C1285.88 33.9719 1268.25 19.9384 1215.91 22.9358C1197.03 24.0177 1150.89 30.0591 1130.39 31.9654C1109.88 33.8716 1060.5 34.6925 1048.5 26.8376C1024.99 30.7504 1041.53 40.2604 956 42.2669C870.472 44.2735 790.323 17.9894 762.764 17.9894C708.019 17.9894 610.879 26.7441 558.21 26.7441C503.987 26.7441 464.826 10.1901 414.663 10.1901C347.384 10.1901 310.613 17.4283 254.61 17.4283C202.658 17.4283 130.529 14.1175 92.0568 14.1175C61.6323 14.1175 28.0623 17.898 14.0311 16.0091C0 14.1202 0 12.811 0 12.811V0L1440 7.62939e-06V29.2432Z" fill="#A0D8EF"/>
<path d="M1440 27.8662L1439.64 29.2736L1431.34 61.8125L1429 71C1429 71 1421.69 43.4272 1407 43.4272C1348.95 43.4272 1300.32 21.6126 1248 24.4063C1229.12 25.4147 1183 31.0456 1162.5 32.8223C1142 34.5991 1082 35.8147 1076.13 27.9673C1052.63 31.6142 1073.69 40.7697 988.194 42.6399C970.248 43.0325 945.538 41.5322 928.5 40C924.97 39.6825 925.469 54.3747 922 54C918.465 53.618 917.963 38.854 914.5 38.4217C911.47 38.0434 914.5 61 909 62.5C906.306 62.1278 900.139 36.4813 897.5 36.0877C850.382 29.0601 812.31 18.9827 795 18.9827C740.273 18.9827 643.152 26.8376 590.5 26.8376C536.295 26.8376 497.147 11.4083 447 11.4083C379.743 11.4083 342.984 14.4942 287 14.4942C235.065 14.4942 162.96 11.4083 124.5 11.4083C94.0855 11.4083 92.5 20.4789 46.5 16.832C0.5 13.185 0 11.4083 0 11.4083V0L1440 7.62939e-06V27.8662Z" fill="white"/>
<path d="M1439.8 29.2599C1439.76 29.2638 1439.7 29.2684 1439.64 29.2736L1431.34 61.8125C1433.35 64.7599 1434.5 66.8641 1434.5 66.8641L1434.86 64.3116L1439.8 29.2599Z" fill="#A0D8EF"/>
<path d="M1439.8 29.2599L1434.86 64.3116C1436.29 64.7855 1437.5 64.7961 1437.5 64.7961L1439.8 29.2599Z" fill="#A0D8EF"/>
</svg>
