<svg width="1309" height="118" viewBox="0 0 1309 118" fill="none" xmlns="http://www.w3.org/2000/svg">
<path d="M1291 52.5C1270.65 15.6095 1250.15 23.998 1213.29 23.998C1160.87 23.998 1144.94 62.4163 1097.7 54.2104C1080.65 51.2488 1039 34.7097 1020.49 29.4911C1001.97 24.2725 957.396 22.0251 946.563 43.5288C925.34 32.8171 940.268 6.78253 863.056 1.28931C785.843 -4.2039 713.486 67.7519 688.607 67.7519C639.184 67.7519 551.488 43.7848 503.94 43.7848C454.988 43.7848 419.635 89.1035 374.349 89.1035C313.61 89.1035 280.415 69.2879 229.856 69.2879C182.955 69.2879 117.839 78.3517 83.1068 78.3517C55.6403 78.3517 51.5 64.5 37.5 64.5C23.5 64.5 10.6542 76.2812 9.5 78.3517C1.93201 91.9271 0 117 0 117C0 117 800.819 117.5 1308.5 117.5C1306.5 88 1311.35 89.3905 1291 52.5Z" fill="#A0D8EF"/>
<path d="M1283.5 58.5C1271.02 37.2697 1259.34 18.5 1222.5 18.5C1170.09 18.5 1173.9 57.8331 1126.67 50.1848C1109.62 47.4244 1067.99 32.009 1049.48 27.145C1030.97 22.281 976.806 18.9532 971.51 40.4363C950.294 30.4524 969.307 5.38817 892.12 0.268193C814.932 -4.85179 742.58 65.0326 717.709 65.0326C668.302 65.0326 580.623 43.5288 533.091 43.5288C484.155 43.5288 448.813 85.7684 403.542 85.7684C342.824 85.7684 309.639 77.3204 259.097 77.3204C212.211 77.3204 147.116 85.7684 112.396 85.7684C84.9384 85.7684 72.5 75.0758 57.5 69.2879C42.5 63.5 21.498 71.4372 9.5 87.5C2.25711 97.1967 0 117 0 117C0 117 800.819 117.5 1308.5 117.5C1296.5 84 1295.98 79.7303 1283.5 58.5Z" fill="white"/>
</svg>
