<svg width="1440" height="129" viewBox="0 0 1440 129" fill="none" xmlns="http://www.w3.org/2000/svg">
<path d="M26 72C46.4145 93.7708 55.2215 102.564 96.0447 102.564C154.116 102.564 171.754 60.243 224.087 69.2824C242.975 72.5449 289.108 90.7642 309.615 96.5129C330.122 102.262 379.5 104.737 391.5 81.0491C415.008 92.849 398.472 121.528 484 127.58C569.528 133.631 649.677 54.3653 677.236 54.3653C731.981 54.3653 829.121 80.7671 881.79 80.7671C936.013 80.7671 975.174 30.8446 1025.34 30.8446C1092.62 30.8446 1129.39 52.6732 1185.39 52.6732C1237.34 52.6732 1309.47 42.6887 1347.94 42.6887C1378.37 42.6887 1392.97 48.3851 1407 42.6887C1421.03 36.9923 1419.43 37.727 1425.5 32C1435.45 22.6109 1440 0.114136 1440 0.114136L0 0.114166C0 0.114166 5.58005 50.2233 26 72Z" fill="#A0D8EF"/>
<path d="M26 67.8474C37.9793 84.7076 23.1902 104.737 64 104.737C122.052 104.737 139.685 65.2917 192 73.717C210.882 76.7579 257 93.7392 277.5 99.0974C298 104.456 358 108.121 363.866 84.4559C387.366 95.454 366.306 123.064 451.806 128.705C537.306 134.345 617.45 57.3609 645 57.3609C699.727 57.3609 796.848 81.0491 849.5 81.0491C903.706 81.0491 942.853 34.5185 993 34.5185C1060.26 34.5185 1097.02 43.8247 1153 43.8247C1204.93 43.8247 1277.04 34.5185 1315.5 34.5185C1345.91 34.5185 1382.5 68.7052 1393.5 50.8747C1404.5 33.0443 1411.76 39.01 1421.03 28.8142C1430.07 18.8718 1440 0.114136 1440 0.114136L0 0.114166C0 0.114166 9.58947 44.7504 26 67.8474Z" fill="white"/>
</svg>
