<svg width="1440" height="93" viewBox="0 0 1440 93" fill="none" xmlns="http://www.w3.org/2000/svg">
<path d="M1440 29.3651C1440 29.3651 1384.78 19.0753 1343.96 19.0753C1285.88 19.0753 1268.25 49.6129 1215.91 43.0904C1197.03 40.7362 1150.89 27.5898 1130.39 23.4416C1109.88 19.2935 1060.5 17.5071 1048.5 34.5998C1024.99 26.0854 1041.53 5.39124 956 1.02484C870.472 -3.34156 790.323 53.8541 762.764 53.8541C708.019 53.8541 610.879 34.8033 558.21 34.8033C503.987 34.8033 464.826 70.8259 414.663 70.8259C347.384 70.8259 310.613 55.075 254.61 55.075C202.658 55.075 130.529 62.2795 92.0568 62.2795C61.6323 62.2795 28.0623 54.0531 14.0311 58.1634C0 62.2738 0 65.1226 0 65.1226V93L1440 93V29.3651Z" fill="#A0D8EF"/>
<path d="M1440 32.3615C1440 32.3615 1416.81 17.5071 1376 17.5071C1317.95 17.5071 1300.32 45.9699 1248 39.8905C1229.12 37.6963 1183 25.4431 1162.5 21.5768C1142 17.7105 1082 15.0653 1076.13 32.1416C1052.63 24.2057 1073.69 4.28291 988.194 0.213179C902.694 -3.85655 822.55 51.6926 795 51.6926C740.273 51.6926 643.152 34.5998 590.5 34.5998C536.294 34.5998 497.147 68.1749 447 68.1749C379.743 68.1749 342.984 61.4598 287 61.4598C235.065 61.4598 162.96 68.1749 124.5 68.1749C94.0855 68.1749 92.5 48.4368 46.5 56.3728C0.5 64.3087 0 68.1749 0 68.1749V93L1440 93V32.3615Z" fill="white"/>
</svg>
