<svg width="1440" height="69" viewBox="0 0 1440 69" fill="none" xmlns="http://www.w3.org/2000/svg">
<path d="M1440 28.4195C1440 28.4195 1439.93 28.425 1439.8 28.4357C1439.76 28.4395 1439.7 28.4439 1439.64 28.449C1434.84 28.8414 1382.86 33.0149 1343.96 33.0149C1285.88 33.0149 1268.25 19.3768 1215.91 22.2898C1197.03 23.3411 1150.89 29.2124 1130.39 31.0649C1109.88 32.9175 1060.5 33.7153 1048.5 26.0816C1024.99 29.8842 1041.53 39.1263 956 41.0763C870.472 43.0264 790.323 17.4827 762.764 17.4827C708.019 17.4827 610.879 25.9908 558.21 25.9908C503.987 25.9908 464.826 9.90301 414.663 9.90301C347.384 9.90301 310.613 16.9374 254.61 16.9374C202.658 16.9374 130.529 13.7198 92.0568 13.7198C61.6323 13.7198 28.0623 37.0141 14.0311 35.1784C0 33.3427 0 32.0704 0 32.0704V1.54972e-06L1440 8.9642e-06V28.4195Z" fill="#A0D8EF"/>
<path d="M1440 27.0813L1439.64 28.449L1431.34 60.0713L1429 69C1429 69 1421.69 42.2039 1407 42.2039C1348.95 42.2039 1300.32 21.0038 1248 23.7188C1229.12 24.6988 1183 30.1711 1162.5 31.8978C1142 33.6245 1082 34.8058 1076.13 27.1795C1052.63 30.7237 1073.69 39.6213 988.194 41.4388C970.248 41.8203 945.538 40.3622 928.5 38.8732C924.97 38.5647 925.469 52.843 922 52.4789C918.465 52.1077 917.963 37.7595 914.5 37.3394C911.47 36.9718 914.5 59.2817 909 60.7394C906.306 60.3778 900.139 35.4536 897.5 35.0711C850.382 28.2415 812.31 18.448 795 18.448C740.273 18.448 643.152 26.0816 590.5 26.0816C536.295 26.0816 497.147 11.087 447 11.087C379.743 11.087 336.484 33.0423 280.5 33.0423C228.565 33.0423 162.96 11.087 124.5 11.087C94.0855 11.087 46.5 16.3578 46.5 16.3578C27.1398 40.3716 16.6531 48.2024 0 30.7073V1.54972e-06L1440 8.9642e-06V27.0813Z" fill="white"/>
<path d="M1439.8 28.4357C1439.76 28.4395 1439.7 28.4439 1439.64 28.449L1431.34 60.0713C1433.35 62.9357 1434.5 64.9806 1434.5 64.9806L1434.86 62.5L1439.8 28.4357Z" fill="#A0D8EF"/>
<path d="M1439.8 28.4357L1434.86 62.5C1436.29 62.9606 1437.5 62.9709 1437.5 62.9709L1439.8 28.4357Z" fill="#A0D8EF"/>
</svg>
