<svg width="16" height="16" viewBox="0 0 16 16" fill="none" xmlns="http://www.w3.org/2000/svg">
<g clip-path="url(#clip0_3188_4243)">
<path d="M9.90008 10.9494C9.97524 11.0246 10.0773 11.0668 10.1836 11.0667C10.2899 11.0665 10.3918 11.0241 10.4668 10.9486L10.9504 10.4619C11.1058 10.3055 11.1053 10.0529 10.9494 9.89703L9.05117 8.00002L10.9494 6.103C11.0245 6.02798 11.0667 5.9262 11.0667 5.82007C11.0667 5.71394 11.0245 5.61216 10.9494 5.53713L10.4658 5.05384C10.3096 4.89776 10.0565 4.89776 9.9003 5.05384L8.00192 6.951L6.10332 5.05064C6.02834 4.97558 5.9266 4.93339 5.82051 4.93335C5.71441 4.93331 5.61264 4.97542 5.5376 5.05042L5.05057 5.53713C4.97546 5.61219 4.93328 5.71404 4.93332 5.82022C4.93336 5.92641 4.97562 6.02822 5.05079 6.10322L6.95179 8.00002L5.05079 9.89681C4.97562 9.97181 4.93336 10.0736 4.93332 10.1798C4.93328 10.286 4.97546 10.3878 5.05057 10.4629L5.5376 10.9496C5.61264 11.0246 5.71441 11.0667 5.82051 11.0667C5.9266 11.0666 6.02834 11.0245 6.10332 10.9494L8.0017 9.04925L9.90008 10.9494Z" fill="#C0392B"/>
</g>
<rect x="0.5" y="0.5" width="15" height="15" rx="7.5" stroke="#C0392B"/>
<defs>
<clipPath id="clip0_3188_4243">
<rect width="8" height="8" fill="white" transform="translate(4 4)"/>
</clipPath>
</defs>
</svg>
