<svg width="104" height="45" viewBox="0 0 104 45" fill="none" xmlns="http://www.w3.org/2000/svg">
<path d="M4.46938 0C3.66004 0.809405 3.02041 1.77298 2.58815 2.83398C2.15589 3.89498 1.93974 5.03197 1.95243 6.178L16.0446 11.6049L4.46938 0Z" fill="url(#paint0_linear_3159_3566)"/>
<path d="M10.1611 9.33789L16.7663 11.9071L17.0907 12.0308L16.9673 12.3513C16.3816 13.8573 15.404 15.1783 14.1363 16.1771C12.8686 17.1758 11.3571 17.8157 9.75909 18.0301V22.5823C11.1181 22.5836 12.464 22.3159 13.7196 21.7946C14.9752 21.2733 16.1159 20.5088 17.0762 19.5447C18.0365 18.5806 18.7976 17.436 19.3159 16.1765C19.8342 14.917 20.0994 13.5673 20.0964 12.2048V1.83179C17.8519 1.8313 15.6683 2.56356 13.8757 3.91781C12.0832 5.27206 10.7793 7.17466 10.1611 9.33789Z" fill="url(#paint1_radial_3159_3566)"/>
<path d="M25.2536 7.02515H20.0964V12.2048C21.465 12.2023 22.7767 11.6556 23.7436 10.6845C24.7105 9.71335 25.2536 8.39728 25.2536 7.02515Z" fill="url(#paint2_radial_3159_3566)"/>
<path d="M16.643 8.75167C17.5941 8.75167 18.3651 7.97867 18.3651 7.02513C18.3651 6.07158 17.5941 5.29858 16.643 5.29858C15.6919 5.29858 14.9209 6.07158 14.9209 7.02513C14.9209 7.97867 15.6919 8.75167 16.643 8.75167Z" fill="white"/>
<path d="M17.5063 7.02529C17.5072 7.19667 17.4574 7.36447 17.3631 7.50741C17.2688 7.65035 17.1342 7.762 16.9766 7.82822C16.8189 7.89443 16.6452 7.91223 16.4774 7.87935C16.3096 7.84647 16.1553 7.7644 16.0342 7.64353C15.913 7.52267 15.8303 7.36845 15.7966 7.20042C15.7629 7.0324 15.7797 6.85813 15.8449 6.6997C15.9101 6.54127 16.0208 6.40582 16.1629 6.3105C16.3049 6.21519 16.472 6.16431 16.643 6.16431C16.8712 6.1643 17.0901 6.25487 17.2519 6.4162C17.4136 6.57754 17.5051 6.79652 17.5063 7.02529Z" fill="#010101"/>
<path d="M2.87061 22.5596C2.87061 24.3912 3.59635 26.1478 4.88819 27.443C5.52785 28.0843 6.28723 28.593 7.12298 28.94C7.95873 29.2871 8.85448 29.4657 9.75908 29.4657V22.5596H2.87061Z" fill="#80BC00"/>
<path d="M20.0964 1.83179V7.00683H25.2536C25.2524 5.63549 24.7088 4.32059 23.742 3.35048C22.7753 2.38036 21.4642 1.83421 20.0964 1.83179Z" fill="url(#paint3_radial_3159_3566)"/>
<path d="M5.52458 17.1694C6.57975 17.5754 7.70436 17.769 8.83418 17.7392C9.964 17.7095 11.0769 17.4569 12.1094 16.9959C13.1418 16.5349 14.0736 15.8745 14.8515 15.0525C15.6293 14.2305 16.2381 13.2629 16.643 12.205L0.572915 6.01782C0.167259 7.07597 -0.026437 8.20389 0.00289671 9.33711C0.0322304 10.4703 0.284019 11.5867 0.743872 12.6223C1.20373 13.6579 1.86263 14.5925 2.68293 15.3728C3.50323 16.153 4.46884 16.7635 5.52458 17.1694Z" fill="url(#paint4_linear_3159_3566)"/>
<path d="M40.7481 28.2658V14.458L37.3038 14.6595L28.6932 28.9665L32.8272 28.7283L37.3038 21.2863V28.4673L40.7481 28.2658Z" fill="white"/>
<path d="M33.8596 44.1985L37.3039 44.0016V30.1938L33.8596 30.3908V44.1985Z" fill="white"/>
<path d="M41.6069 28.2153L45.0511 28.0184V21.474L48.1482 27.8352L51.935 27.6154V13.8076L48.4954 14.0091V20.5489L45.3937 14.1877L41.6069 14.4076V28.2153Z" fill="white"/>
<path d="M29.986 25.44L23.5315 25.8155V15.4563L20.0872 15.6578V29.4656L27.8345 29.0168L29.986 25.44Z" fill="white"/>
<path d="M45.0511 36.2848L41.9495 29.9236L38.1627 30.1434V43.9511L41.6069 43.7496V37.2099L44.7085 43.571L48.4954 43.3512V29.5435L45.0511 29.7404V36.2848Z" fill="white"/>
<path d="M99.4555 40.3929L103.585 40.1548L94.9789 26.8462L91.5346 27.0431V35.3278L86.3683 27.3454L82.924 27.5469V41.3546L86.3683 41.1531V33.9722L90.8449 40.8921L94.9789 40.6539V33.473L99.4555 40.3929Z" fill="white"/>
<path d="M60.5456 28.852V42.6506L68.3111 42.1926L70.892 39.4448V30.835L68.2928 28.394L60.5456 28.852ZM67.4295 37.9473L66.5707 38.8632L63.9898 39.0143V32.0944L66.5707 31.9479L67.4295 32.7585V37.9473Z" fill="white"/>
<path d="M71.7371 30.7846V42.0002L79.5026 41.5423L82.0835 38.7944V27.5925L74.318 28.0505L71.7371 30.7846ZM75.1768 32.3096L76.0401 31.3937L78.621 31.2425V37.2877L77.7623 38.2037L75.1768 38.3548V32.3096Z" fill="white"/>
<path d="M49.3541 32.0808V43.301L57.1014 42.8522L59.6823 40.1135V35.7995L56.2426 35.9964V38.5885L55.3793 39.4999L52.7984 39.651V33.6104L53.6571 32.6944L59.6823 32.3464V28.8933L51.935 29.3421L49.3541 32.0808Z" fill="white"/>
<path d="M63.1265 24.3777V20.0636L59.6823 20.2651V22.8527L58.8235 23.764L56.2426 23.9152V17.8745L57.1014 16.9586L63.1265 16.6106V13.1575L55.3792 13.6109L52.7983 16.3495V27.5652L60.5456 27.1164L63.1265 24.3777Z" fill="white"/>
<path d="M32.0781 30.4961L27.9441 30.7342L25.2536 35.2132L23.5315 35.3093V30.9907L20.0872 31.1922V45L23.5315 44.7985V38.7624L25.2536 38.6617L29.013 44.4825L33.147 44.2397L28.3095 36.7611L32.0781 30.4961Z" fill="white"/>
<defs>
<linearGradient id="paint0_linear_3159_3566" x1="2.29699" y1="2.17584" x2="14.5022" y2="14.3498" gradientUnits="userSpaceOnUse">
<stop stop-color="#19468D"/>
<stop offset="1" stop-color="#00A0DD"/>
</linearGradient>
<radialGradient id="paint1_radial_3159_3566" cx="0" cy="0" r="1" gradientUnits="userSpaceOnUse" gradientTransform="translate(21.5216 11.1359) scale(10.3501 10.3767)">
<stop stop-color="#00A0DD"/>
<stop offset="1" stop-color="#19468D"/>
</radialGradient>
<radialGradient id="paint2_radial_3159_3566" cx="0" cy="0" r="1" gradientUnits="userSpaceOnUse" gradientTransform="translate(21.5207 5.94617) scale(5.18098 5.19428)">
<stop stop-color="#343636"/>
<stop offset="1"/>
</radialGradient>
<radialGradient id="paint3_radial_3159_3566" cx="0" cy="0" r="1" gradientUnits="userSpaceOnUse" gradientTransform="translate(21.6294 5.97915) rotate(-90) scale(5.19428 5.18098)">
<stop stop-color="#FFCF01"/>
<stop offset="1" stop-color="#F58220"/>
</radialGradient>
<linearGradient id="paint4_linear_3159_3566" x1="450.076" y1="-984.135" x2="1036.07" y2="-759.769" gradientUnits="userSpaceOnUse">
<stop stop-color="#19468D"/>
<stop offset="1" stop-color="#00A0DD"/>
</linearGradient>
</defs>
</svg>
