<svg width="226" height="258" viewBox="0 0 226 258" fill="none" xmlns="http://www.w3.org/2000/svg">
<g clip-path="url(#clip0_3521_4934)">
<path d="M53.6313 56.4151C54.2253 55.7793 52.8251 37.4688 48.2002 30.6024C43.533 23.7783 33.0104 27.5506 33.0104 27.5506C33.0104 27.5506 37.0412 -2.24634 92.4121 0.169633C147.783 2.5856 151.093 30.0937 151.093 30.0937L109.129 38.9099L53.6313 56.4151Z" fill="#F2565A"/>
<path d="M83.9262 46.836C83.7564 46.2003 83.5867 45.5645 83.417 44.9287C80.2348 34.9681 72.3852 26.5758 62.584 22.8035C53.3767 19.2431 42.6844 19.8789 33.9014 24.3294C33.1801 26.2791 33.0104 27.5507 33.0104 27.5507C33.0104 27.5507 43.5754 23.7784 48.2002 30.6448C52.8251 37.5113 54.2253 55.8217 53.6313 56.4575L83.9262 46.836Z" fill="#AD3138"/>
<path d="M164.84 122.197L188.897 106.557C188.897 106.557 200.141 109.821 203.663 120.586C203.663 120.586 182.66 151.74 174.344 160.386C174.344 160.386 155.336 135.464 164.84 122.197Z" fill="#F2565A"/>
<path d="M195.092 102.361C195.092 102.361 196.917 94.2653 199.717 89.7724C202.56 85.2796 207.609 87.9922 206.336 93.0361C206.336 93.0361 214.822 79.5575 223.223 89.4333C231.624 99.3091 214.652 111.219 207.185 114.78L195.092 102.361Z" fill="#774143"/>
<path d="M210.07 112.745L198.444 100.496C196.577 98.546 193.438 98.5037 191.528 100.411L189.534 102.403C187.625 104.31 187.667 107.447 189.661 109.312L202.008 120.841C203.918 122.621 206.888 122.579 208.712 120.714L209.985 119.4C211.852 117.619 211.852 114.652 210.07 112.745Z" fill="white"/>
<path d="M76.4584 133.175L44.8482 122.451C44.8482 122.451 33.0952 129.36 32.2466 142.5C32.2466 142.5 64.8751 171.576 76.7555 178.909C76.7555 178.909 90.9694 145.382 76.4584 133.175Z" fill="#F2565A"/>
<path d="M36.6594 119.485C36.6594 119.485 32.2891 110.88 27.8339 106.642C23.3364 102.403 18.457 106.896 21.2998 112.237C21.2998 112.237 7.84951 99.4787 1.23046 113C-5.38859 126.521 17.1416 135.082 26.6035 136.947L36.6594 119.485Z" fill="#774143"/>
<path d="M22.7849 135.506L32.374 118.382C33.9015 115.627 37.4231 114.695 40.1386 116.306L42.9814 118.001C45.697 119.612 46.5455 123.172 44.8484 125.8L34.2833 142.33C32.671 144.873 29.2766 145.679 26.6884 144.11L24.8639 143.008C22.1908 141.482 21.2998 138.134 22.7849 135.506Z" fill="white"/>
<path d="M69.6273 203.111C69.6273 203.111 79.5983 227.948 92.3697 240.452C92.3697 240.452 98.0977 239.477 106.669 237.909L117.488 220.955C117.488 220.955 140.443 220.065 151.729 215.911C151.729 215.911 158.306 227.525 162.379 230.915C162.379 230.915 172.265 231.89 179.733 229.22C179.733 229.22 190.128 201.373 187.285 186.58C184.442 171.83 153.129 182.596 153.129 182.596L104.505 191.624L69.6273 203.111Z" fill="#AD3138"/>
<path d="M70.179 139.66C70.179 139.66 59.5291 163.65 63.5175 203.111C63.5175 203.111 128.265 225.194 193.735 188.997C193.735 188.997 187.964 148.773 168.913 125.334L70.179 139.66Z" fill="#F2565A"/>
<path d="M108.069 41.6223C88.933 46.9629 72.7672 53.2783 68.8212 60.6958C64.8753 68.1132 66.2754 86.4237 66.2754 86.4237L75.907 99.5208L105.141 95.7485C105.141 95.7485 134.757 97.8678 137.006 95.8333C139.255 93.7988 162.252 85.8303 163.482 84.7707C164.713 83.711 167.555 69.6391 166.792 68.5371C166.028 67.4774 159.494 48.404 159.366 47.9378C159.239 47.4715 152.45 38.9097 152.45 38.9097L108.069 41.6223Z" fill="#FFCE95"/>
<path d="M72.9368 62.2218C72.9368 62.2218 69.2878 77.0143 73.3187 87.7379C77.3919 98.4614 79.6831 98.6309 99.8797 90.5777C120.076 82.5245 135.521 80.3204 142.691 81.3377C149.904 82.3549 162.209 79.6422 164.161 71.2075C166.113 62.7729 154.36 45.9458 151.093 43.7418C147.825 41.5378 162.039 42.5974 162.039 42.5974C162.039 42.5974 191.995 78.2011 179.605 113.72C167.258 149.324 142.479 160.217 108.154 160.217C73.8278 160.217 60.5473 134.065 53.2494 111.94C45.9514 89.8147 55.1587 67.9863 55.1587 67.9863L72.9368 62.2218Z" fill="white"/>
<path d="M179.648 113.762C179.86 113.211 179.987 112.618 180.157 112.067C176.381 117.747 172.011 123.045 167.046 127.75C153.893 140.211 136.327 148.349 118.21 148.434C100.092 148.561 81.7199 140.041 71.5368 125.122C65.4693 116.263 62.4144 105.624 60.8445 94.9856C59.5716 86.2543 59.1897 77.2685 61.3961 68.7067L54.9043 68.6643C53.4617 72.5214 46.7578 92.0611 53.292 111.897C60.5899 134.023 73.828 160.174 108.196 160.174C142.479 160.217 167.258 149.324 179.648 113.762Z" fill="#B9D8EA"/>
<path d="M94.0669 66.1211C91.606 66.9265 90.2906 69.5543 91.0968 72.0127L92.4545 76.2089C93.2607 78.6672 95.8914 79.9812 98.3523 79.1758C100.813 78.3705 102.129 75.7426 101.322 73.2843L99.9646 69.0881C99.1585 66.6721 96.5278 65.3158 94.0669 66.1211Z" fill="#1E2C57"/>
<path d="M136.921 54.8892C134.46 55.6945 133.145 58.3224 133.951 60.7808L135.309 64.9769C136.115 67.4353 138.745 68.7492 141.206 67.9439C143.667 67.1386 144.983 64.5107 144.176 62.0523L142.819 57.8562C142.013 55.4402 139.34 54.0839 136.921 54.8892Z" fill="#1E2C57"/>
<path d="M84.2126 89.8938C89.143 88.857 92.5607 85.2681 91.8462 81.8777C91.1318 78.4873 86.5558 76.5794 81.6254 77.6162C76.6951 78.6529 73.2774 82.2418 73.9918 85.6322C74.7063 89.0226 79.2823 90.9305 84.2126 89.8938Z" fill="#F2565A"/>
<path d="M162.937 66.5741C163.049 63.5798 159.609 61.0203 155.254 60.8572C150.898 60.6942 147.276 62.9893 147.164 65.9835C147.051 68.9777 150.491 71.5372 154.847 71.7003C159.202 71.8634 162.824 69.5683 162.937 66.5741Z" fill="#F2565A"/>
<path d="M106.117 99.1396C104.42 102.403 105.056 106.557 107.178 109.609C109.299 112.618 112.609 114.653 116.088 115.882C122.028 117.959 128.647 118.001 134.545 115.839C140.443 113.678 145.534 109.354 148.504 103.802C150.329 100.369 151.347 96.2998 150.329 92.5699C149.311 88.84 145.831 85.6187 141.928 85.7458C135.351 86.0001 131.108 93.1633 124.489 93.8414C118.04 94.562 109.936 91.8493 106.117 99.1396Z" fill="#F2565A"/>
<path d="M115.324 115.543C115.579 115.627 115.833 115.755 116.046 115.839C121.986 117.916 128.605 117.959 134.503 115.797C139.424 114.017 143.795 110.668 146.807 106.387C143.116 104.141 138.788 102.869 134.418 103.039C126.483 103.378 118.888 108.422 115.324 115.543Z" fill="#F8857E"/>
<path d="M52.7403 73.5385C48.5398 70.8683 45.4848 59.848 53.8435 50.1418C62.2022 40.4355 78.4952 28.3133 111.293 23.9476C144.092 19.5819 157.372 29.3306 160.3 32.128C163.228 34.9254 163.991 46.4119 157.16 47.0477C150.329 47.6834 132.678 42.5124 104.759 51.6253C70.3487 62.8574 60.6747 78.5824 52.7403 73.5385Z" fill="white"/>
<path d="M39.3186 34.645C42.1858 29.9758 40.7212 23.8688 36.0471 21.0045C31.3731 18.1402 25.2596 19.6034 22.3923 24.2725C19.5251 28.9417 20.9898 35.0488 25.6638 37.913C30.3379 40.7773 36.4513 39.3141 39.3186 34.645Z" fill="white"/>
<path d="M153.511 43.4873C147.147 43.6993 140.825 42.5125 134.503 42.0462C111.93 40.478 89.527 48.1921 69.7547 59.2123C66.4028 61.0773 62.3719 63.1118 58.8927 61.4587C55.8378 60.0176 54.6073 56.1182 55.1589 52.8121C55.6256 50.0147 57.0682 47.5563 58.6381 45.1827C56.8136 46.8782 55.2013 48.5312 53.8011 50.0995C45.4424 59.8057 48.4974 70.8259 52.6979 73.4962C60.6323 78.5401 70.3063 62.8151 104.717 51.5829C132.636 42.4701 150.329 47.6411 157.118 47.0053C159.918 46.751 161.403 44.6317 162.04 42.0886C159.324 42.9787 156.396 43.4026 153.511 43.4873Z" fill="#B9D8EA"/>
<path d="M94.1093 89.0093C92.2848 91.8915 91.2665 95.3671 91.8605 98.7155C92.3272 101.301 93.8123 103.759 96.1459 104.946C98.4371 106.091 101.153 105.921 103.656 105.243C107.729 104.141 111.463 101.767 114.221 98.546C114.009 102.191 118.252 104.946 121.816 104.099C125.38 103.251 127.799 99.8176 128.562 96.2572C131.278 98.7156 135.181 100.284 138.661 99.097C142.14 97.9102 144.219 93.1631 141.885 90.3232C144.813 90.4928 147.825 89.6451 149.947 87.6106C152.068 85.5761 153.002 82.3124 151.856 79.6421C148.589 72.0127 133.23 72.6485 126.526 72.479C119.058 72.2671 113.033 75.0221 106.541 78.5825C101.789 81.2104 96.9945 84.4741 94.1093 89.0093Z" fill="white"/>
<path d="M111.251 72.8183C111.675 71.9283 112.227 71.1229 112.863 70.36C120.034 62.2644 128.732 69.0037 132.296 76.633C135.945 84.4743 132.678 90.1964 124.192 92.0189C117.573 93.4177 111.463 91.4679 110.105 84.3048C109.426 80.702 109.554 76.294 111.251 72.8183Z" fill="#F2565A"/>
<path d="M149.862 87.6955C151.05 86.5511 151.856 84.9829 152.153 83.3298C151.771 83.7537 151.432 84.2199 151.008 84.6014C148.165 87.2717 144.092 88.9247 140.358 87.9498C141.249 90.5777 139.17 93.5871 136.497 94.3924C133.824 95.1554 130.854 94.1381 128.69 92.4003C127.714 95.5792 125.338 98.5038 122.071 99.3091C118.846 100.114 114.942 98.1223 114.348 94.8587C111.336 96.8932 107.729 98.08 104.123 98.2495C102.553 98.3343 100.941 98.2071 99.5828 97.4866C96.8248 96.0878 95.6368 92.5275 96.146 89.4757C96.4854 87.526 97.334 85.7458 98.4372 84.1352C96.7824 85.6186 95.2549 87.2293 94.0669 89.0942C92.2424 91.9765 91.2241 95.4521 91.8181 98.8005C92.2848 101.386 93.7699 103.844 96.1035 105.031C98.3947 106.176 101.11 106.006 103.614 105.328C107.687 104.226 111.421 101.852 114.179 98.631C113.966 102.276 118.209 105.031 121.774 104.183C125.338 103.336 127.756 99.9025 128.52 96.3422C131.235 98.8005 135.139 100.369 138.618 99.182C142.097 97.9952 144.177 93.248 141.843 90.4082C144.728 90.5777 147.783 89.73 149.862 87.6955Z" fill="#B9D8EA"/>
<path d="M89.739 61.8403C89.7814 61.7978 89.7814 61.7979 89.7814 61.7979C89.7814 61.7979 89.7814 61.7978 89.739 61.8403C89.739 61.7978 89.7814 61.7978 89.739 61.8403Z" fill="white"/>
<path d="M96.74 55.8637C96.2733 55.4823 95.5944 55.3127 95.0004 55.1856C94.3639 55.016 93.7275 54.9736 93.0486 54.9736C91.6909 54.9736 90.2482 55.2279 89.0178 55.8213C87.7025 56.4571 86.6417 57.432 85.7083 58.4916C85.3264 58.9155 84.9869 59.3817 84.6475 59.848C84.3929 60.187 84.1384 60.5685 84.0111 60.95C83.9262 61.2043 83.7989 61.501 83.7565 61.7553C83.6716 62.2215 83.7989 62.6454 83.9262 63.1116C84.1808 64.0865 85.4112 64.5527 86.3023 64.468C87.7873 64.3832 88.5935 62.8997 89.5269 61.9248C89.5694 61.8825 89.6542 61.8401 89.6967 61.7553C89.6118 61.8401 89.4845 61.9248 89.6542 61.7553L89.6967 61.7129C89.7391 61.6705 89.7815 61.6705 89.7815 61.6281L89.7391 61.6705C89.9088 61.5434 90.0361 61.3738 90.2058 61.2467C90.3755 61.1195 90.5453 60.9924 90.715 60.8652C90.6725 60.9076 90.6301 60.9076 90.6301 60.9076C90.6725 60.9076 90.715 60.8652 90.7574 60.8652C90.7998 60.8652 90.7998 60.8228 90.8423 60.8228C91.0544 60.6533 90.9271 60.7804 90.7574 60.8652C90.8423 60.8228 90.9271 60.7381 91.012 60.7381C91.2241 60.6533 91.3938 60.5685 91.606 60.4837C91.7333 60.4414 91.8606 60.399 91.9879 60.3566C92.0727 60.3142 92.1152 60.3142 92.1152 60.3142C92.3697 60.2718 92.6667 60.2294 92.8789 60.2294C92.794 60.2294 92.7516 60.2294 92.9638 60.2294C93.091 60.2294 93.2183 60.2294 93.3456 60.2718C93.5578 60.3142 93.7699 60.3142 93.9821 60.3566C94.0245 60.3566 94.0245 60.3566 94.0669 60.3566C94.2791 60.4413 94.4912 60.4837 94.7034 60.5261C95.4671 60.6109 96.2733 60.399 96.8673 59.9327C97.5037 59.4241 97.9705 58.534 97.8008 57.6863C97.7159 57.0505 97.334 56.3724 96.74 55.8637Z" fill="white"/>
<path d="M140.655 44.9709C140.358 44.9709 140.061 44.9285 139.764 44.8861C139.679 44.8861 139.637 44.8861 139.552 44.8437C139.34 44.8014 139.424 44.8437 139.764 44.9285C139.679 44.9285 139.467 44.8437 139.382 44.8014C138.661 44.5894 137.897 44.3351 137.176 44.1656C135.945 43.8689 134.63 43.8265 133.399 44.0808C132.042 44.3775 130.769 44.8437 129.581 45.6067C128.435 46.3696 127.205 47.7683 127.077 49.2094C126.908 50.9049 128.478 52.0916 130.047 51.4983C130.599 51.2863 131.108 50.9472 131.575 50.6082C131.66 50.5234 131.745 50.481 131.872 50.3962C132.126 50.2267 132.084 50.2691 131.745 50.481C131.787 50.3962 132.254 50.1843 132.339 50.1419C132.763 49.93 133.187 49.7181 133.612 49.5909C133.654 49.5909 133.696 49.5485 133.739 49.5485C133.951 49.5061 134.206 49.4638 134.418 49.4214C134.545 49.4214 134.884 49.4214 135.054 49.379C135.139 49.379 135.181 49.379 135.266 49.379C135.521 49.4214 135.775 49.4638 135.988 49.5061C136.157 49.5485 137.006 49.6757 136.242 49.5485C136.751 49.6333 137.303 49.8452 137.77 50.0148C138.449 50.2691 139.085 50.481 139.806 50.6505C140.485 50.8201 141.461 50.481 142.013 50.0571C142.564 49.6333 143.073 48.8704 143.116 48.1498C143.286 46.7935 142.31 45.0557 140.655 44.9709Z" fill="white"/>
<path d="M100.601 65.9941C100.431 65.5702 100.134 65.2312 99.7949 64.9345C99.6251 64.8073 99.413 64.7225 99.2009 64.5954C98.7766 64.4258 98.3098 64.3411 97.8431 64.4258C97.5037 64.4682 97.1642 64.553 96.8672 64.7649C96.5702 64.8921 96.3156 65.104 96.1035 65.4007C95.8913 65.655 95.7216 65.9517 95.6792 66.2908C95.5519 66.6299 95.5095 66.969 95.5943 67.308C95.6368 67.52 95.7216 67.7743 95.764 67.9862C95.9338 68.4101 96.2308 68.7491 96.5702 69.0458C96.7824 69.173 96.9521 69.2578 97.1642 69.3849C97.5885 69.5545 98.0552 69.6392 98.522 69.5545C98.8614 69.5121 99.2009 69.4273 99.4979 69.2154C99.7949 69.0882 100.049 68.8763 100.262 68.5796C100.474 68.3253 100.643 68.0286 100.686 67.6895C100.813 67.3504 100.856 67.0113 100.771 66.6723L100.601 65.9941Z" fill="white"/>
<path d="M143.243 54.4653C143.073 54.0414 142.776 53.7023 142.437 53.4056C142.267 53.2785 142.055 53.1937 141.843 53.0666C141.419 52.897 140.952 52.8123 140.485 52.897C140.146 52.9394 139.806 53.0242 139.509 53.2361C139.212 53.3633 138.958 53.5752 138.745 53.8719C138.533 54.1262 138.364 54.4229 138.321 54.762C138.194 55.1011 138.151 55.4402 138.236 55.7792C138.279 55.9912 138.364 56.2455 138.406 56.4574C138.576 56.8813 138.873 57.2203 139.212 57.517C139.424 57.6442 139.594 57.729 139.806 57.8561C140.23 58.0257 140.697 58.1104 141.164 58.0257C141.503 57.9833 141.843 57.8985 142.14 57.6866C142.437 57.5594 142.691 57.3475 142.904 57.0508C143.116 56.7965 143.285 56.4998 143.328 56.1607C143.455 55.8216 143.498 55.4825 143.413 55.1435L143.243 54.4653Z" fill="white"/>
<path d="M87.9995 238.799C87.9995 238.799 104.038 232.399 110.19 236.765L109.13 249.565C109.13 249.565 112.566 251.557 113.415 254.397C114.264 257.237 102.086 259.229 97.6735 257.11C93.2608 254.99 87.9995 238.799 87.9995 238.799Z" fill="#774143"/>
<path d="M159.112 229.899C159.112 229.899 175.15 223.498 181.303 227.864L180.242 240.664C180.242 240.664 183.679 242.657 184.527 245.496C185.376 248.336 173.199 250.328 168.786 248.209C164.288 246.047 159.112 229.899 159.112 229.899Z" fill="#774143"/>
<path d="M62.7537 179.205C62.5839 183.868 62.5839 188.912 62.8385 194.295C77.3071 197.601 102.51 201.585 130.429 198.067C160.639 194.295 181.769 184.885 191.868 179.46C191.189 176.281 190.255 172.466 189.067 168.27C180.709 172.848 161.233 181.749 129.878 186.03C97.2067 190.48 73.1914 183.317 62.7537 179.205Z" fill="#774143"/>
<path d="M148.292 185.267C147.953 182.978 145.831 181.41 143.583 181.749L127.799 184.08C125.507 184.419 123.938 186.538 124.277 188.785L125.55 197.304C125.889 199.593 128.011 201.161 130.26 200.822L146.043 198.491C148.335 198.152 149.905 196.033 149.565 193.786L148.292 185.267ZM143.625 195.905L132.72 197.516C131.151 197.728 129.708 196.753 129.496 195.27L128.69 189.76C128.478 188.276 129.581 186.92 131.151 186.708L142.055 185.097C143.625 184.885 145.068 185.86 145.28 187.344L146.086 192.854C146.298 194.295 145.195 195.651 143.625 195.905Z" fill="#FFBD57"/>
<path d="M136.539 162.04C136.327 161.489 135.945 161.022 135.478 160.683C135.224 160.556 134.969 160.387 134.757 160.259C134.206 160.005 133.612 159.963 133.017 160.005C132.551 160.047 132.126 160.175 131.787 160.471C131.405 160.641 131.066 160.938 130.811 161.277C130.514 161.616 130.344 161.997 130.26 162.421C130.09 162.845 130.047 163.269 130.132 163.735C130.217 164.032 130.302 164.328 130.344 164.625C130.557 165.176 130.938 165.642 131.405 165.981C131.66 166.109 131.914 166.278 132.126 166.405C132.678 166.66 133.272 166.702 133.866 166.66C134.333 166.617 134.757 166.49 135.097 166.193C135.478 166.024 135.818 165.727 136.072 165.388C136.369 165.049 136.539 164.667 136.624 164.244C136.794 163.82 136.836 163.396 136.751 162.93C136.666 162.633 136.624 162.336 136.539 162.04Z" fill="#FFBD57"/>
<path d="M138.703 174.967C138.491 174.416 138.109 173.95 137.642 173.611C137.388 173.484 137.133 173.314 136.921 173.187C136.369 172.933 135.775 172.89 135.181 172.933C134.715 172.975 134.29 173.102 133.951 173.399C133.569 173.568 133.23 173.865 132.975 174.204C132.678 174.543 132.508 174.925 132.423 175.349C132.254 175.772 132.211 176.196 132.296 176.662C132.381 176.959 132.466 177.256 132.508 177.553C132.72 178.104 133.102 178.57 133.569 178.909C133.824 179.036 134.078 179.206 134.29 179.333C134.842 179.587 135.436 179.629 136.03 179.587C136.497 179.545 136.921 179.418 137.26 179.121C137.642 178.951 137.982 178.655 138.236 178.315C138.533 177.976 138.703 177.595 138.788 177.171C138.958 176.747 139 176.323 138.915 175.857C138.83 175.56 138.745 175.264 138.703 174.967Z" fill="#FFBD57"/>
</g>
<defs>
<clipPath id="clip0_3521_4934">
<rect width="225.557" height="258" fill="white"/>
</clipPath>
</defs>
</svg>
