<svg width="375" height="533" viewBox="0 0 375 533" fill="none" xmlns="http://www.w3.org/2000/svg">
<g clip-path="url(#clip0_3506_4803)">
<path d="M193.404 41.4818C193.404 41.4818 255.628 -17.4139 340.002 33.3773C340.002 33.3773 298.644 47.61 288.299 96.791L212.83 51.8604L193.404 41.4818Z" fill="#9FC76E"/>
<path d="M274.516 126.98L288.028 110.542C292.823 104.734 293.702 96.7198 290.342 90.02C281.129 72.0595 256.592 40.0501 196.764 36.6072C188.148 36.0988 180.255 41.6217 177.583 49.8261L169.76 74.6698L274.516 126.98Z" fill="#F2565A"/>
<path d="M2.42855 208.613C5.06705 207.719 7.76785 208.465 10.3149 209.338C12.3115 210.019 14.3211 210.559 16.2539 211.163C17.4315 211.484 18.6091 211.805 19.7867 212.127C17.5157 204.391 15.4512 195.183 17.9425 188.169C18.4176 186.863 19.9926 186.724 20.9007 187.66C24.1494 190.941 25.5147 195.398 27.1876 199.599C28.8475 203.942 30.4176 208.489 32.0006 212.895C35.3196 222.36 38.7026 231.903 43.0463 241.036C47.1981 249.939 51.7215 258.663 56.5524 267.131C61.4982 275.894 67.7123 283.993 72.3635 292.871C76.2993 300.262 65.4491 305.513 61.0374 300.208C54.3619 292.493 49.3659 282.732 44.5739 273.841C39.59 264.719 35.2722 255.304 31.4798 245.582C28.7855 238.588 26.1682 231.531 23.7685 224.422C23.1413 224.294 22.514 224.165 21.8868 224.036C20.9139 223.805 19.9411 223.573 18.9683 223.342C16.9587 222.802 14.8851 222.185 12.8245 221.428C10.8408 220.606 8.87003 219.644 6.96321 218.758C4.65981 217.552 1.66523 216.141 0.771745 213.502C0.223028 211.748 0.456149 209.213 2.42855 208.613Z" fill="#E1A060"/>
<path d="M264.487 252.241L325.7 266.108C334.814 268.153 339.951 277.928 336.382 286.618L327.756 307.837C323.892 317.423 311.687 320.419 303.858 313.664L258.305 274.68L264.487 252.241Z" fill="#AD3138"/>
<path d="M261.3 251.38L301.723 224.919C307.771 220.93 315.924 223.385 318.798 229.969L325.977 246.109C329.208 253.436 324.398 261.728 316.446 262.488L270.451 266.921L261.3 251.38Z" fill="#AD3138"/>
<path d="M48.2861 469.741C101.219 533.396 195.731 542.088 259.386 489.155C323.041 436.223 331.733 341.71 278.8 278.056C225.868 214.401 131.355 205.709 67.7004 258.641C4.04569 311.574 -4.64639 406.086 48.2861 469.741Z" fill="white"/>
<path d="M283.135 283.425C275.626 289.409 267.426 294.407 258.065 295.818C251.368 296.836 244.493 295.919 237.694 296.501C229.179 297.209 221.032 300.081 212.759 302.019C192.601 306.556 171.4 304.677 151.445 299.291C131.49 293.906 112.626 285.141 94.2372 275.852C85.0106 271.169 74.838 265.192 72.4287 255.1L230.698 239.761C251.391 250.256 269.326 265.255 283.135 283.425Z" fill="#B9D8EA"/>
<path d="M94.7167 245.93C133.983 293.151 204.096 299.599 251.316 260.332C298.537 221.065 304.985 150.953 265.718 103.733C226.452 56.5117 156.34 50.0637 109.119 89.3305C61.8979 128.597 55.4499 198.709 94.7167 245.93Z" fill="white"/>
<path d="M86.7003 235.039C105.723 238.208 124.438 242.415 143.5 245.162C168.873 248.774 195.209 249.633 219.57 241.862C243.931 234.09 266.215 216.47 274.55 192.241C276.502 186.456 277.699 180.388 278.333 174.268C280.958 149.586 274.929 124.036 261.507 103.203C258.209 98.1422 254.603 93.337 250.536 88.9155C277.874 111.312 294.111 146.322 290.909 184.23C285.851 245.401 232.104 290.874 170.87 285.74C135.151 282.668 104.724 262.97 86.7003 235.039Z" fill="#B9D8EA"/>
<path d="M230.644 202.004C242.668 205.141 254.959 197.936 258.096 185.912C261.233 173.888 254.029 161.597 242.004 158.46C229.98 155.323 217.689 162.527 214.552 174.551C211.415 186.576 218.62 198.866 230.644 202.004Z" fill="#F8857E"/>
<path d="M92.4504 180.962C99.0556 188.392 110.433 189.061 117.864 182.456C125.294 175.85 125.962 164.473 119.357 157.043C112.752 149.613 101.374 148.944 93.9437 155.549C86.5137 162.155 85.8451 173.532 92.4504 180.962Z" fill="#F8857E"/>
<path d="M151.265 178.488C145.446 171.491 140.705 162.818 136.358 156.809C131.641 150.197 126.769 143.713 122.052 137.102C120.287 134.667 122.647 131.405 125.552 132.24L143.037 137.469C159.484 142.39 192.272 144.909 192.222 167.84C192.276 177.289 186.212 185.324 177.335 188.413C166.269 192.153 157.978 186.562 151.265 178.488Z" fill="#E1A060"/>
<path d="M212.928 117.198C218.074 117.6 221.91 122.214 221.444 127.283L220.705 136.091C220.303 141.238 215.689 145.074 210.62 144.608C205.473 144.206 201.637 139.592 202.103 134.523L202.842 125.715C203.308 120.645 207.858 116.732 212.928 117.198Z" fill="#1E2C57"/>
<path d="M148.855 107.4C153.503 107.827 157.032 111.915 156.605 116.563L155.943 124.526C155.516 129.173 151.428 132.703 146.781 132.275C142.133 131.848 138.604 127.76 139.031 123.112L139.693 115.149C140.056 110.425 144.208 106.972 148.855 107.4Z" fill="#1E2C57"/>
<path d="M112.026 174.312C114.51 185.902 119.158 197.903 128.74 205.673C138.514 213.672 150.505 219.178 163.153 220.625C176.224 222.111 190.017 219.616 201.841 213.816C208.015 210.762 213.717 206.671 218.242 201.477C222.767 196.284 225.335 189.987 229.45 184.614C230.899 182.759 233.586 184.426 232.892 186.564C224.014 215.926 189.775 229.961 161.367 226.923C147.515 225.436 134.384 219.967 124.831 209.574C116.058 199.962 108.234 188.52 107.633 174.973C107.534 172.194 111.427 171.558 112.026 174.312Z" fill="#1E2C57"/>
<path d="M274.645 247.566L278.354 263.6C279.922 270.49 275.382 277.386 268.39 278.519C248.631 281.814 209.416 291.273 167.627 288.566C125.839 285.859 92.5805 268.386 77.0831 260.854C71.3756 258.056 68.6425 251.485 70.8894 245.585L75.2552 233.631C77.5279 227.449 84.3047 224.025 90.6402 226.17C106.908 231.5 138.431 243.915 172.358 246.396C207.13 248.955 243.219 241.054 260.878 238.205C267.153 237.149 273.167 241.252 274.645 247.566Z" fill="#F2565A"/>
<path d="M260.092 279.957C255.904 280.708 251.127 281.689 245.928 282.631C245.903 282.131 245.955 281.568 245.866 280.992C245.769 275.87 245.39 270.723 244.871 265.562C244.351 260.402 243.614 255.292 242.672 250.093C242.265 247.57 241.717 245.034 241.31 242.512C241.272 242.153 241.157 241.859 241.119 241.5C244.794 240.915 248.188 240.304 251.223 239.731C252.36 242.037 253.42 244.407 254.263 246.827C256.126 252.04 257.401 257.483 258.24 263.028C259.029 268.355 259.599 273.734 259.952 279.163C260.003 279.38 259.977 279.662 260.092 279.957Z" fill="#9FC76E"/>
<path d="M202.651 282.982C202.965 277.259 203.201 271.6 203.655 265.89C204.033 260.244 204.346 254.521 204.8 248.811C204.878 247.966 204.891 247.044 204.905 246.123C209.336 245.82 213.715 245.3 217.941 244.907C218.002 247.327 218 249.67 218.087 251.808C218.363 257.302 218.421 262.846 218.479 268.39C218.487 273.716 218.353 279.029 218.296 284.279C218.295 285.06 218.218 285.905 218.217 286.686C213.043 287.346 207.678 287.776 202.172 288.193C202.405 286.439 202.573 284.608 202.651 282.982Z" fill="#9FC76E"/>
<path d="M112.333 259.764C115.066 253.979 118.145 248.298 121.556 242.86C122.711 241.12 123.878 239.239 125.186 237.371C128.296 238.296 131.624 239.17 134.952 240.044C133.848 242.783 132.399 245.419 131.307 248.017C128.972 253.341 126.892 258.972 124.965 264.476C123.308 269.365 121.792 274.267 120.417 279.183C115.592 277.603 110.984 275.972 106.594 274.29C108.328 269.337 110.126 264.46 112.333 259.764Z" fill="#9FC76E"/>
<path d="M155.965 287.21C156.636 282.23 157.371 277.327 158.246 272.436C159.393 266.151 160.603 259.943 161.954 253.747C162.545 251.174 163.022 248.307 163.78 245.465C166.52 245.788 169.337 246.047 172.153 246.306C173.421 246.423 174.765 246.475 176.109 246.528C175.992 248.576 175.721 250.753 175.603 252.801C175.2 258.729 174.656 264.643 174.112 270.558C173.594 276.191 173.281 281.914 172.686 287.611C172.647 288.034 172.621 288.315 172.582 288.738C170.956 288.659 169.253 288.645 167.564 288.489C163.543 288.191 159.677 287.764 155.965 287.21Z" fill="#9FC76E"/>
<path d="M76.3411 260.43C77.8814 256.808 79.6903 253.353 81.2945 249.808C83.925 244.37 86.7732 238.88 89.6723 233.608C90.8653 231.445 92.0584 229.283 93.3283 227.056C95.6705 227.839 98.2175 228.713 101.033 229.753C98.6181 237.484 95.4987 245.15 92.61 252.624C90.8512 257.078 89.2333 261.545 87.6793 266.089C83.533 264.074 79.8602 262.316 76.9425 260.841C76.7507 260.61 76.5459 260.52 76.3411 260.43Z" fill="#9FC76E"/>
<path d="M139.549 341.804C146.674 341.863 152.496 336.135 152.555 329.011C152.614 321.887 146.886 316.064 139.762 316.005C132.638 315.946 126.815 321.674 126.756 328.798C126.697 335.923 132.425 341.746 139.549 341.804Z" fill="#1E2C57"/>
<path d="M127.168 415.789C134.198 416.941 140.832 412.177 141.984 405.146C143.136 398.116 138.372 391.483 131.341 390.33C124.311 389.178 117.678 393.943 116.525 400.973C115.373 408.003 120.138 414.637 127.168 415.789Z" fill="#1E2C57"/>
<path d="M38.1217 455.954C65.5552 472.679 96.567 483.697 128.561 486.355C167.941 489.764 208.705 480.447 241.544 458.472C279.303 433.186 304.366 390.755 310.905 345.911C313.401 358.922 314.142 372.482 313.077 386.373C306.128 468.885 233.671 530.177 151.223 523.305C103.239 519.247 62.5377 493.136 38.1217 455.954Z" fill="#B9D8EA"/>
<path d="M279.036 334.175C280.899 340.169 278.292 347.669 272.476 349.904C261.345 354.348 254.896 351.127 246.53 343.257C242.808 339.719 239.01 335.464 238.913 330.343C238.804 324.581 243.598 319.554 249.181 318.292C259.26 316.024 275.909 324.159 279.036 334.175Z" fill="#B9D8EA"/>
<path d="M354.2 242.669C351.359 241.129 348.132 241.471 345.033 241.968C342.651 242.388 340.282 242.667 337.849 242.869C336.415 243.021 335.058 243.109 333.624 243.262C337.666 234.828 341.863 224.705 340.297 216.253C340.017 214.665 338.212 214.215 336.995 215.097C332.587 218.242 330.226 223.067 327.469 227.571C324.762 232.292 322.12 237.091 319.477 241.889C313.845 252.165 308.15 262.363 301.52 271.908C295.122 281.261 288.249 290.357 281.121 299.146C273.826 308.203 265.124 316.35 258.098 325.574C252.277 333.276 263.536 341.341 269.7 336.085C278.837 328.617 286.389 318.306 293.62 309.171C301.03 299.628 307.763 289.737 313.971 279.373C318.421 271.9 322.808 264.351 326.849 256.698C327.553 256.763 328.27 256.687 329.064 256.547C330.204 256.51 331.357 256.332 332.496 256.294C335.006 256.028 337.516 255.762 339.834 255.265C342.293 254.781 344.7 254.079 347.044 253.301C349.824 252.42 353.615 251.349 355.154 248.508C356.103 246.678 356.299 243.785 354.2 242.669Z" fill="#E1A060"/>
<path d="M157.878 172.209C161.105 171.085 163.249 166.312 163.892 163.176C164.291 161.153 164.409 159.105 164.155 157.235C164.04 156.159 163.849 155.148 163.518 154.123C163.186 153.098 162.636 152.125 162.458 150.972C162.217 148.962 164.524 147.044 166.379 148.492C168.63 150.262 169.459 153.604 169.994 156.281C170.465 158.88 170.488 161.723 170.037 164.309C169.56 167.176 168.61 169.787 167.096 172.346C165.506 174.97 163.198 177.669 160.086 178.306C158.498 178.586 156.886 177.585 156.389 176.048C155.724 174.78 156.264 172.77 157.878 172.209Z" fill="#BF7341"/>
<path d="M133.536 149.661C133.753 150.391 134.214 150.789 134.892 151.135C136.453 151.918 138.361 151.241 139.528 150.141C140.527 149.31 141.194 148.235 141.797 147.084C142.31 146.137 142.555 145.023 142.582 143.96C142.582 143.179 142.583 142.398 142.302 141.592C142.072 141.002 141.689 140.541 141.305 140.08C140.73 139.388 139.68 139.22 138.796 139.565C137.912 139.91 137.604 140.946 137.667 141.804C137.604 140.946 137.667 141.804 137.577 142.009C137.564 142.15 137.538 142.432 137.449 142.636C137.423 142.918 137.384 143.34 137.358 143.622C137.255 143.968 137.165 144.172 137.063 144.518C136.896 144.787 136.729 145.055 136.498 145.247C136.191 145.503 135.96 145.695 135.653 145.951C135.499 146.078 135.204 146.193 135.05 146.321C134.448 146.692 134.051 147.152 133.577 147.677C133.397 148.086 133.383 149.008 133.536 149.661Z" fill="#BF7341"/>
<path d="M346.888 44.4198C352.984 40.6271 354.851 32.6106 351.059 26.5146C347.266 20.4185 339.249 18.5513 333.153 22.344C327.057 26.1368 325.19 34.1533 328.983 40.2493C332.776 46.3454 340.792 48.2126 346.888 44.4198Z" fill="#F2565A"/>
<path d="M221.835 23.4329C222.282 24.7522 222.741 25.9306 223.047 27.2369C226.108 26.3822 229.105 25.4507 232.179 24.4553C234.741 23.6257 237.943 22.003 240.721 22.6845C245.24 23.7392 245.501 30.9351 245.945 35.3785C250.169 35.767 254.202 35.9249 258.505 35.4685C261.45 35.1002 266.01 33.3893 268.838 35.0696C271.192 36.4933 271.739 39.81 272.441 42.2178C273.64 46.1626 274.545 50.2223 275.245 54.1922C280.725 54.0571 286.193 54.0629 291.711 54.2863C292.633 54.3001 293.413 55.082 293.617 55.9528C294.674 61.4467 295.59 66.9277 296.429 72.4725C296.48 72.6903 296.518 73.0488 296.569 73.2665C295.53 75.3012 294.554 77.4128 293.566 79.6652C293.197 77.501 292.841 75.196 292.459 73.1726C291.491 68.2549 290.6 63.2734 289.696 58.4326C284.396 58.1582 279.069 58.1654 273.768 58.672C272.552 58.7731 271.4 58.1701 271.094 56.8638C270.406 53.5342 269.795 50.1405 269.107 46.8109C268.151 42.5334 268.617 38.2447 263.047 38.5845C256.478 38.9745 249.96 40.3633 243.366 40.254C242.303 40.2272 241.254 39.2787 241.14 38.203C240.771 36.0388 240.402 33.8746 240.033 31.7104C239.55 28.4706 239.679 27.8433 236.234 28.2366C231.714 28.744 226.616 30.9025 222.286 32.4216C221.108 32.8813 219.572 32.598 218.984 31.2658C218.231 29.4213 217.554 27.5128 216.865 25.7452C218.568 24.9787 220.208 24.1354 221.835 23.4329Z" fill="white"/>
<path d="M282.851 41.755C283.043 41.2047 283.441 40.7441 283.838 40.2836C284.069 40.0918 284.363 39.9769 284.594 39.7851C285.183 39.5552 285.696 39.3893 286.323 39.518C286.745 39.5569 287.232 39.6726 287.564 39.9162C287.974 40.0959 288.307 40.3395 288.626 40.724C288.882 41.0315 289.125 41.4799 289.227 41.9153C289.406 42.2868 289.431 42.7862 289.392 43.2087C289.366 43.4904 289.263 43.8359 289.237 44.1176C289.045 44.668 288.647 45.1285 288.25 45.589C288.019 45.7808 287.725 45.8957 287.494 46.0875C286.905 46.3174 286.392 46.4833 285.765 46.3546C285.343 46.3157 284.856 46.2 284.524 45.9564C284.114 45.7767 283.781 45.5331 283.462 45.1486C283.206 44.8411 282.963 44.3927 282.861 43.9573C282.682 43.5858 282.657 43.0864 282.696 42.6639C282.722 42.3823 282.825 42.0367 282.851 41.755Z" fill="white"/>
<path d="M253.601 23.1589C253.794 22.6086 254.127 22.0712 254.588 21.6875C254.819 21.4957 255.114 21.3808 255.344 21.189C255.934 20.9591 256.51 20.8701 257.15 20.858C257.649 20.8329 258.059 21.0126 258.456 21.3331C258.865 21.5128 259.198 21.7564 259.517 22.1408C259.837 22.5253 260.016 22.8968 260.118 23.3322C260.361 23.7806 260.322 24.2031 260.347 24.7024C260.321 24.9841 260.218 25.3297 260.192 25.6113C260 26.1617 259.666 26.6991 259.205 27.0827L258.385 27.5044C257.796 27.7342 257.22 27.8233 256.579 27.8354C256.08 27.8605 255.67 27.6808 255.274 27.3603C254.864 27.1806 254.532 26.937 254.212 26.5525C253.892 26.1681 253.713 25.7966 253.611 25.3612C253.369 24.9128 253.408 24.4903 253.382 23.9909C253.408 23.7093 253.434 23.4276 253.601 23.1589Z" fill="white"/>
<path d="M281.639 13.2398C281.626 13.3807 281.536 13.5854 281.523 13.7263C281.06 15.6719 280.661 17.6945 279.993 19.5503C283.219 19.9891 286.882 19.5448 289.955 19.3303C291.812 19.217 294.347 18.6692 295.139 20.8722C295.535 21.9738 295.251 23.5099 295.148 24.6365C294.992 26.3264 294.837 28.0164 294.541 29.6933C294.412 30.3206 294.04 31.2805 294.129 31.8567C294.269 32.6507 293.834 31.9717 294.576 32.395C295.779 33.2157 298.378 33.5257 299.773 33.796C302.781 34.2857 306.098 33.7386 309.017 34.4331C311.871 35.0507 312.291 37.4326 312.417 39.9294C312.605 43.2842 312.871 46.575 312.918 49.9169C312.956 50.2754 312.917 50.6979 313.019 51.1333C311.456 52.6937 309.892 54.2541 308.379 56.0323C308.176 54.3804 308.127 52.6006 308.052 51.1025C307.85 47.8886 307.713 44.7515 307.575 41.6144C307.563 40.9743 307.487 40.2572 307.475 39.617C307.36 39.3224 307.373 39.1815 307.322 38.9638C305.99 38.7704 304.415 38.9096 303.007 38.78C299.909 38.4951 296.9 38.0054 293.905 37.3749C291.742 36.9629 289.681 36.2053 288.966 33.9383C288.137 31.3767 289.497 28.1644 290.217 25.7453C290.602 24.6445 290.937 23.3261 291.463 22.2384C291.322 22.2254 291.181 22.2124 291.04 22.1995C290.105 22.3266 288.915 22.1461 287.993 22.1323C284.587 22.1031 280.708 21.8173 277.416 22.8638C276.097 23.3105 275.023 21.8626 274.986 20.723C275.091 18.0344 275.977 15.3465 276.633 12.8505C276.633 12.8505 276.71 12.7865 276.646 12.7097C278.4 12.942 280.026 13.0205 281.639 13.2398Z" fill="white"/>
<path d="M302.599 24.6827C302.792 24.1324 303.112 23.7358 303.574 23.3522C303.804 23.1603 304.022 23.1094 304.253 22.9175C304.778 22.6108 305.277 22.5857 305.841 22.6375C306.263 22.6764 306.609 22.7792 307.018 22.9589C307.428 23.1385 307.76 23.3822 308.016 23.6897C308.272 23.9973 308.451 24.3688 308.63 24.7403C308.809 25.1118 308.911 25.5472 308.795 26.0336C308.769 26.3153 308.679 26.52 308.576 26.8656C308.384 27.416 308.063 27.8126 307.602 28.1962C307.371 28.388 307.153 28.439 306.923 28.6308C306.397 28.9375 305.898 28.9626 305.335 28.9108C304.912 28.872 304.567 28.7692 304.157 28.5895C303.748 28.4098 303.415 28.1662 303.159 27.8586C302.904 27.5511 302.725 27.1796 302.546 26.8081C302.367 26.4366 302.265 26.0012 302.381 25.5147C302.471 25.31 302.573 24.9644 302.599 24.6827Z" fill="white"/>
<path d="M250.523 430.326C250.691 429.276 250.871 428.867 251.384 427.92C251.397 427.779 251.551 427.651 251.704 427.523C252.268 426.794 252.756 426.129 253.384 425.477C253.768 425.157 254.089 424.76 254.473 424.441C254.55 424.377 254.704 424.249 254.781 424.185C255.473 423.609 256.062 423.38 256.792 423.163C257.01 423.112 257.227 423.061 257.445 423.01C258.098 422.857 258.725 422.985 259.417 423.191C259.903 423.307 260.3 423.627 260.555 423.935C260.952 424.255 261.208 424.563 261.451 425.011C261.68 425.601 261.833 426.254 261.845 426.894C261.896 427.112 261.871 427.393 261.922 427.611C261.934 428.251 261.677 428.725 261.421 429.198C261.151 429.812 260.805 430.491 260.535 431.105C260.189 431.783 259.791 432.244 259.381 432.845C258.804 433.715 258.176 434.367 257.215 434.776C256.69 435.083 256.101 435.313 255.601 435.338C255.025 435.427 254.526 435.452 253.898 435.323C253.335 435.271 252.862 435.015 252.324 434.681C252.068 434.374 251.8 434.207 251.544 433.9C251.096 433.361 250.803 432.695 250.586 431.965C250.343 431.517 250.395 430.953 250.523 430.326Z" fill="#B9D8EA"/>
<path d="M241.548 430.637C241.625 430.573 241.702 430.509 241.714 430.368L241.791 430.304C242.125 429.767 242.509 429.447 243.175 429.153C243.252 429.089 243.329 429.025 243.393 429.102L243.47 429.038C243.765 428.923 244.059 428.808 244.277 428.757C244.712 428.656 245.135 428.694 245.621 428.81C245.826 428.9 246.044 428.849 246.248 428.939C246.594 429.042 246.863 429.208 247.119 429.516C247.323 429.606 247.515 429.836 247.566 430.054C247.822 430.362 247.937 430.656 247.975 431.015C247.962 431.156 248.026 431.233 248.09 431.309C248.064 431.591 248.179 431.886 248.153 432.167C248.127 432.449 248.101 432.731 247.998 433.076C247.908 433.281 247.665 433.614 247.562 433.959C247.485 434.023 247.472 434.164 247.395 434.228C247.318 434.292 247.229 434.497 247.075 434.625C246.985 434.829 246.908 434.893 246.754 435.021L246.677 435.085C246.6 435.149 246.524 435.213 246.447 435.277C246.216 435.469 245.832 435.788 245.537 435.903C245.383 436.031 245.242 436.018 245.102 436.005C244.948 436.133 244.807 436.12 244.666 436.107C244.308 436.145 244.026 436.119 243.667 436.157C243.245 436.119 242.899 436.016 242.49 435.836C242.08 435.656 241.748 435.413 241.492 435.105C241.3 434.875 241.249 434.657 241.057 434.426C240.751 433.901 240.725 433.401 240.777 432.838C240.791 431.916 241.137 431.238 241.548 430.637Z" fill="#B9D8EA"/>
<path d="M241.508 444.196C241.547 443.773 241.65 443.428 241.97 443.031C242.047 442.967 242.124 442.903 242.137 442.762C242.304 442.494 242.534 442.302 242.765 442.11C242.996 441.918 243.213 441.867 243.444 441.675C243.585 441.688 243.739 441.56 243.879 441.573C244.097 441.522 244.315 441.471 244.533 441.42C244.673 441.433 244.814 441.446 244.955 441.459C245.096 441.472 245.237 441.485 245.377 441.498L245.518 441.511C245.659 441.524 245.659 441.524 245.8 441.537C246.005 441.627 246.222 441.576 246.427 441.666C246.773 441.769 247.041 441.935 247.233 442.166C247.438 442.256 247.566 442.41 247.617 442.627C247.809 442.858 247.924 443.153 247.962 443.511C247.936 443.793 248.051 444.087 248.025 444.369C248.063 444.728 248.05 444.868 247.87 445.278C247.857 445.419 247.78 445.483 247.844 445.56C247.844 445.56 247.844 445.56 247.767 445.623C247.665 445.969 247.421 446.302 247.177 446.634C247.024 446.762 247.011 446.903 246.793 446.954C246.716 447.018 246.639 447.082 246.562 447.146C246.178 447.466 245.653 447.772 245.153 447.797C244.935 447.848 244.513 447.809 244.295 447.86C244.154 447.848 244.014 447.835 243.796 447.886C243.514 447.86 243.169 447.757 242.9 447.59C242.631 447.423 242.363 447.257 242.171 447.026C242.043 446.872 241.915 446.718 241.864 446.501C241.685 446.129 241.583 445.694 241.622 445.271C241.635 445.13 241.648 444.99 241.597 444.772C241.405 444.541 241.418 444.4 241.508 444.196Z" fill="#B9D8EA"/>
<path d="M214.569 456.062C214.775 455.371 215.185 454.77 215.659 454.245C215.98 453.849 216.3 453.452 216.749 453.209C216.903 453.081 217.056 452.954 217.21 452.826C217.364 452.698 217.518 452.57 217.659 452.583C217.889 452.391 218.261 452.212 218.555 452.097C218.696 452.11 218.927 451.918 219.145 451.867C219.503 451.829 219.926 451.868 220.361 451.766C220.502 451.779 220.643 451.792 220.86 451.741C221.424 451.793 221.974 451.986 222.511 452.319C222.844 452.563 223.241 452.883 223.419 453.255C223.675 453.562 223.918 454.011 223.879 454.433C223.968 455.009 223.98 455.65 223.711 456.264C223.621 456.469 223.531 456.673 223.518 456.814C223.326 457.365 223.005 457.761 222.608 458.222C222.287 458.618 221.967 459.015 221.505 459.398C221.352 459.526 221.121 459.718 221.031 459.923L220.954 459.987L220.121 460.549C220.121 460.549 220.121 460.549 220.044 460.613C219.968 460.677 219.891 460.741 219.75 460.728C219.673 460.792 219.596 460.856 219.519 460.92C219.365 461.048 219.148 461.099 218.994 461.227C218.699 461.342 218.482 461.393 218.187 461.508C217.905 461.482 217.547 461.52 217.329 461.571C216.907 461.532 216.42 461.416 216.087 461.172C215.819 461.006 215.614 460.916 215.422 460.685C215.153 460.519 214.962 460.288 214.847 459.993C214.655 459.763 214.54 459.468 214.489 459.25C214.31 458.879 214.285 458.379 214.324 457.957C214.312 457.317 214.44 456.689 214.569 456.062Z" fill="#B9D8EA"/>
<path d="M204.766 464.605C204.778 464.464 204.855 464.4 204.791 464.323C204.881 464.118 204.894 463.977 205.061 463.709C205.164 463.363 205.394 463.171 205.561 462.903C205.715 462.775 205.728 462.634 205.882 462.506L205.959 462.442C206.112 462.314 206.189 462.25 206.407 462.199C206.791 461.88 207.227 461.778 207.662 461.676C208.021 461.638 208.302 461.664 208.661 461.626C208.802 461.638 208.943 461.651 209.147 461.741C209.775 461.87 209.711 461.793 210.376 462.28L211.028 462.908C211.476 463.447 211.527 463.664 211.693 464.177C211.808 464.471 211.923 464.766 211.82 465.111C211.871 465.329 211.858 465.47 211.845 465.611C211.845 465.611 211.845 465.611 211.832 465.752C211.819 465.893 211.729 466.097 211.716 466.238C211.6 466.725 211.485 467.211 211.164 467.608C211.087 467.671 211.074 467.812 210.921 467.94L210.844 468.004C210.523 468.401 210.28 468.733 209.831 468.976C209.677 469.104 209.601 469.168 209.383 469.219C209.306 469.283 209.306 469.283 209.229 469.347C208.64 469.577 208.064 469.666 207.423 469.678C206.924 469.703 206.514 469.523 206.118 469.203C205.708 469.023 205.376 468.779 205.056 468.395C204.672 467.934 204.366 467.408 204.277 466.832L204.29 466.691C204.303 466.55 204.252 466.333 204.265 466.192C204.534 465.578 204.573 465.155 204.766 464.605Z" fill="#B9D8EA"/>
<path d="M239.532 216.288C239.622 216.083 239.635 215.942 239.789 215.814C239.878 215.61 240.045 215.341 240.276 215.149C240.596 214.753 240.519 214.817 240.968 214.574C241.122 214.446 241.198 214.382 241.416 214.331C241.57 214.203 241.711 214.216 241.865 214.088C242.159 213.973 242.454 213.858 242.761 213.603C242.531 213.794 242.313 213.845 242.082 214.037C242.531 213.794 242.915 213.475 243.363 213.232C243.581 213.181 243.812 212.989 243.966 212.861C243.812 212.989 243.517 213.104 243.363 213.232C243.594 213.04 243.825 212.848 244.119 212.733C244.414 212.618 244.632 212.567 244.926 212.452C245.067 212.465 245.144 212.401 245.362 212.35C245.503 212.363 245.72 212.312 245.861 212.325C246.143 212.351 246.348 212.441 246.552 212.531C246.962 212.711 247.218 213.018 247.396 213.39C247.511 213.684 247.626 213.979 247.741 214.274C247.805 214.35 247.728 214.414 247.792 214.491C247.958 215.004 247.766 215.554 247.65 216.04C247.56 216.245 247.547 216.386 247.457 216.591C247.277 217 247.098 217.41 246.854 217.742C246.457 218.203 245.982 218.727 245.444 219.175C245.29 219.303 245.06 219.495 244.842 219.546C244.611 219.737 244.535 219.801 244.24 219.916C244.163 219.98 244.163 219.98 244.022 219.967C243.433 220.197 242.998 220.299 242.357 220.311C241.653 220.246 241.244 220.067 240.706 219.733L240.118 219.182C239.862 218.875 239.683 218.503 239.568 218.208C239.453 217.914 239.402 217.696 239.428 217.415C239.313 217.12 239.352 216.697 239.532 216.288Z" fill="#B9D8EA"/>
<path d="M232.159 214.616C232.262 214.27 232.428 214.001 232.659 213.809C232.736 213.746 232.813 213.682 232.967 213.554C233.044 213.49 233.044 213.49 233.12 213.426C233.274 213.298 233.428 213.17 233.582 213.042C233.812 212.85 234.043 212.659 234.338 212.544C234.555 212.493 234.85 212.378 235.145 212.263C235.362 212.212 235.516 212.084 235.657 212.097C236.016 212.059 236.374 212.021 236.72 212.124C236.924 212.213 237.193 212.38 237.321 212.534C237.59 212.701 237.641 212.918 237.833 213.149C237.947 213.444 238.049 213.879 238.023 214.161C237.985 214.583 237.818 214.852 237.715 215.198C237.638 215.261 237.625 215.402 237.625 215.402C237.625 215.402 237.625 215.402 237.548 215.466C237.446 215.812 237.279 216.081 237.048 216.272C236.894 216.4 236.818 216.464 236.741 216.528C236.587 216.656 236.433 216.784 236.279 216.912C236.049 217.104 235.818 217.295 235.523 217.41C235.229 217.525 234.934 217.64 234.716 217.691C234.281 217.793 233.859 217.754 233.449 217.575C233.103 217.472 232.899 217.382 232.707 217.151C232.438 216.985 232.246 216.754 232.131 216.459C231.953 216.088 231.851 215.652 231.953 215.307C232.043 215.102 232.069 214.82 232.159 214.616Z" fill="#B9D8EA"/>
<path d="M229.638 225.035C229.715 224.971 229.728 224.83 229.805 224.767C229.998 224.216 230.151 224.088 230.536 223.769C230.613 223.705 230.613 223.705 230.69 223.641C230.997 223.385 231.228 223.193 231.599 223.014C232.125 222.708 232.688 222.759 233.328 222.747L233.751 222.786C234.455 222.851 235.21 223.133 235.581 223.735C235.644 223.812 235.644 223.812 235.708 223.889L235.772 223.966C235.836 224.043 235.964 224.197 236.028 224.274C236.143 224.568 236.194 224.786 236.168 225.068C236.155 225.208 236.219 225.285 236.142 225.349C236.077 226.053 235.667 226.655 235.129 227.102C235.052 227.166 234.898 227.294 234.821 227.358C234.591 227.55 234.36 227.742 234.142 227.793C233.771 227.972 233.118 228.125 232.695 228.086C232.554 228.073 232.413 228.06 232.273 228.047C231.991 228.021 231.709 227.995 231.505 227.905C231.3 227.815 231.095 227.726 230.826 227.559C230.762 227.482 230.622 227.469 230.558 227.392C230.43 227.238 230.366 227.161 230.161 227.072C229.969 226.841 229.841 226.687 229.867 226.405C229.739 226.252 229.752 226.111 229.778 225.829C229.586 225.599 229.612 225.317 229.638 225.035Z" fill="#B9D8EA"/>
<path d="M201.949 122.295C202.309 121.476 202.732 120.734 203.424 120.158C203.796 119.979 204.103 119.724 204.552 119.481C205.371 119.059 206.165 118.919 207.151 119.01C207.855 119.075 208.483 119.203 209.084 119.614C209.698 119.883 210.159 120.281 210.606 120.819C211.054 121.357 211.361 121.882 211.514 122.535C211.743 123.125 211.896 123.778 211.832 124.482C211.716 124.968 211.613 125.314 211.497 125.8C211.138 126.619 210.715 127.362 210.023 127.937C209.651 128.116 209.344 128.372 208.895 128.614C208.075 129.036 207.281 129.176 206.296 129.085C205.591 129.021 204.964 128.892 204.363 128.482C203.749 128.212 203.288 127.815 202.84 127.277C202.393 126.738 202.086 126.213 201.933 125.56C201.703 124.971 201.55 124.318 201.615 123.613C201.731 123.127 201.911 122.717 201.949 122.295Z" fill="white"/>
<path d="M138.225 111.038C138.584 110.219 139.007 109.476 139.699 108.901C140.071 108.722 140.378 108.466 140.827 108.224C141.647 107.802 142.441 107.662 143.426 107.753C144.13 107.817 144.758 107.946 145.359 108.356C145.973 108.626 146.434 109.023 146.881 109.561C147.329 110.1 147.636 110.625 147.789 111.278C148.019 111.867 148.171 112.521 148.107 113.225C147.991 113.711 147.888 114.057 147.772 114.543C147.413 115.362 146.99 116.104 146.298 116.68C145.926 116.859 145.619 117.114 145.17 117.357C144.35 117.779 143.556 117.919 142.571 117.828C141.867 117.763 141.239 117.635 140.702 117.301C140.088 117.032 139.627 116.634 139.18 116.096C138.732 115.558 138.425 115.033 138.272 114.379C138.042 113.79 137.889 113.137 137.954 112.433C138.07 111.947 138.186 111.46 138.225 111.038Z" fill="white"/>
</g>
<defs>
<clipPath id="clip0_3506_4803">
<rect width="375" height="533" fill="white"/>
</clipPath>
</defs>
</svg>
