<svg width="1440" height="1147" viewBox="0 0 1440 1147" fill="none" xmlns="http://www.w3.org/2000/svg">
<g opacity="0.1">
<mask id="mask0_3506_4491" style="mask-type:alpha" maskUnits="userSpaceOnUse" x="0" y="0" width="1440" height="1147">
<rect width="1440" height="1147" fill="#808080"/>
</mask>
<g mask="url(#mask0_3506_4491)">
<circle cx="1173.25" cy="824.25" r="2.75" fill="white"/>
<circle cx="1212.75" cy="302.75" r="4.25" fill="white"/>
<circle cx="175.25" cy="335.25" r="2.75" fill="white"/>
<circle cx="302.25" cy="411.25" r="1.75" fill="white"/>
<circle cx="1030.75" cy="673.75" r="1.25" fill="white"/>
<circle cx="141.25" cy="306.25" r="3.75" fill="white"/>
<circle cx="897.75" cy="710.75" r="4.25" fill="white"/>
<circle cx="869.25" cy="847.25" r="2.75" fill="white"/>
<circle cx="810.25" cy="369.25" r="3.75" fill="white"/>
<circle cx="280.25" cy="961.25" r="1.75" fill="white"/>
<circle cx="166.25" cy="324.25" r="1.75" fill="white"/>
<circle cx="172.75" cy="195.75" r="3.25" fill="white"/>
<circle cx="507.25" cy="328.25" r="1.75" fill="white"/>
<circle cx="1204.25" cy="1043.25" r="3.75" fill="white"/>
<circle cx="914.25" cy="414.25" r="3.75" fill="white"/>
<circle cx="443.75" cy="442.75" r="1.25" fill="white"/>
<circle cx="1439.75" cy="925.75" r="3.25" fill="white"/>
<circle cx="689.25" cy="1057.25" r="4.75" fill="white"/>
<circle cx="344.25" cy="705.25" r="2.75" fill="white"/>
<circle cx="204.75" cy="747.75" r="2.25" fill="white"/>
<circle cx="336.75" cy="887.75" r="2.25" fill="white"/>
<circle cx="532.25" cy="769.25" r="3.75" fill="white"/>
<circle cx="489.75" cy="262.75" r="3.25" fill="white"/>
<circle cx="849.25" cy="892.25" r="2.75" fill="white"/>
<circle cx="581.75" cy="752.75" r="1.25" fill="white"/>
<circle cx="7.75" cy="141.75" r="1.25" fill="white"/>
<circle cx="833.75" cy="370.75" r="1.25" fill="white"/>
<circle cx="442.75" cy="296.75" r="1.25" fill="white"/>
<circle cx="376.25" cy="877.25" r="1.75" fill="white"/>
<circle cx="505.25" cy="140.25" r="2.75" fill="white"/>
<circle cx="460.75" cy="182.75" r="4.25" fill="white"/>
<circle cx="1156.75" cy="650.75" r="2.25" fill="white"/>
<circle cx="887.25" cy="8.25" r="3.75" fill="white"/>
<circle cx="1251.25" cy="342.25" r="1.75" fill="white"/>
<circle cx="102.75" cy="189.75" r="4.25" fill="white"/>
<circle cx="402.75" cy="287.75" r="3.25" fill="white"/>
<circle cx="42.25" cy="697.25" r="1.75" fill="white"/>
<circle cx="427.25" cy="471.25" r="2.75" fill="white"/>
<circle cx="712.75" cy="438.75" r="3.25" fill="white"/>
<circle cx="113.25" cy="812.25" r="3.75" fill="white"/>
<circle cx="814.75" cy="1128.75" r="1.25" fill="white"/>
<circle cx="675.75" cy="1013.75" r="1.25" fill="white"/>
<circle cx="1000.25" cy="253.25" r="4.75" fill="white"/>
<circle cx="391.25" cy="284.25" r="3.75" fill="white"/>
<circle cx="1104.25" cy="1102.25" r="4.75" fill="white"/>
<circle cx="615.25" cy="190.25" r="2.75" fill="white"/>
<circle cx="1318.75" cy="1128.75" r="4.25" fill="white"/>
<circle cx="482.25" cy="372.25" r="3.75" fill="white"/>
<circle cx="1051.75" cy="391.75" r="2.25" fill="white"/>
<circle cx="1152.75" cy="438.75" r="4.25" fill="white"/>
<circle cx="1025.75" cy="428.75" r="4.25" fill="white"/>
<circle cx="766.75" cy="349.75" r="1.25" fill="white"/>
<circle cx="350.25" cy="811.25" r="4.75" fill="white"/>
<circle cx="273.25" cy="228.25" r="4.75" fill="white"/>
<circle cx="199.75" cy="914.75" r="1.25" fill="white"/>
<circle cx="526.75" cy="710.75" r="2.25" fill="white"/>
<circle cx="1089.25" cy="770.25" r="1.75" fill="white"/>
<circle cx="1365.75" cy="924.75" r="1.25" fill="white"/>
<circle cx="1381.25" cy="1044.25" r="3.75" fill="white"/>
<circle cx="827.25" cy="555.25" r="1.75" fill="white"/>
<circle cx="221.75" cy="791.75" r="1.25" fill="white"/>
<circle cx="726.75" cy="1088.75" r="1.25" fill="white"/>
<circle cx="1099.25" cy="209.25" r="2.75" fill="white"/>
<circle cx="423.75" cy="544.75" r="4.25" fill="white"/>
<circle cx="373.25" cy="248.25" r="1.75" fill="white"/>
<circle cx="678.75" cy="640.75" r="3.25" fill="white"/>
<circle cx="944.75" cy="62.75" r="1.25" fill="white"/>
<circle cx="529.25" cy="672.25" r="1.75" fill="white"/>
<circle cx="931.25" cy="1110.25" r="1.75" fill="white"/>
<circle cx="268.75" cy="59.75" r="2.25" fill="white"/>
<circle cx="1226.75" cy="986.75" r="1.25" fill="white"/>
<circle cx="1218.25" cy="708.25" r="1.75" fill="white"/>
<circle cx="974.75" cy="53.75" r="3.25" fill="white"/>
<circle cx="67.75" cy="876.75" r="1.25" fill="white"/>
<circle cx="1106.75" cy="932.75" r="2.25" fill="white"/>
<circle cx="281.75" cy="149.75" r="1.25" fill="white"/>
<circle cx="801.75" cy="64.75" r="2.25" fill="white"/>
<circle cx="636.25" cy="228.25" r="3.75" fill="white"/>
<circle cx="617.25" cy="929.25" r="2.75" fill="white"/>
<circle cx="948.75" cy="290.75" r="2.25" fill="white"/>
<circle cx="1434.75" cy="623.75" r="4.25" fill="white"/>
<circle cx="1375.75" cy="192.75" r="1.25" fill="white"/>
<circle cx="933.75" cy="220.75" r="2.25" fill="white"/>
<circle cx="898.25" cy="725.25" r="3.75" fill="white"/>
<circle cx="470.25" cy="1115.25" r="3.75" fill="white"/>
<circle cx="1311.25" cy="1142.25" r="3.75" fill="white"/>
<circle cx="368.75" cy="601.75" r="4.25" fill="white"/>
<circle cx="1043.25" cy="272.25" r="2.75" fill="white"/>
<circle cx="91.75" cy="337.75" r="2.25" fill="white"/>
<circle cx="1281.75" cy="1145.75" r="1.25" fill="white"/>
<circle cx="718.75" cy="914.75" r="2.25" fill="white"/>
<circle cx="156.75" cy="933.75" r="4.25" fill="white"/>
<circle cx="440.25" cy="902.25" r="3.75" fill="white"/>
<circle cx="1184.25" cy="116.25" r="1.75" fill="white"/>
<circle cx="418.75" cy="199.75" r="4.25" fill="white"/>
<circle cx="725.25" cy="963.25" r="2.75" fill="white"/>
<circle cx="190.75" cy="1024.75" r="2.25" fill="white"/>
<circle cx="1267.25" cy="855.25" r="1.75" fill="white"/>
<circle cx="1375.25" cy="384.25" r="2.75" fill="white"/>
<circle cx="635.75" cy="743.75" r="2.25" fill="white"/>
</g>
</g>
</svg>
