<svg width="77" height="91" viewBox="0 0 77 91" fill="none" xmlns="http://www.w3.org/2000/svg">
<g clip-path="url(#clip0_3506_4769)">
<path d="M40.1 36.7C40.1 34.8 40.1 32.8 40.1 30.9C40.4 25.1 40.3 19.4 40.2 13.6C40.2 12.2 39.1 11.5 38.1 11.5C37 11.5 35.9 12.2 36 13.6C35.9 19.4 35.8 25.2 36.1 30.9C36.1 32.8 36.1 34.8 36.1 36.7C35.8 50.2 35.3 63.7 35.5 77.2C35.5 80.7 40.9 80.7 41 77.2C40.9 63.7 40.4 50.2 40.1 36.7Z" fill="white"/>
<path d="M46.6 42.2001C48.2 41.1001 49.7 40.0001 51.3 38.9001C56.2 35.9001 60.9 32.5001 65.6 29.1001C66.8 28.3001 66.7 27.0001 66.1 26.2001C65.5 25.3001 64.3 24.8001 63.2 25.6001C58.4 28.8001 53.6 32.0001 49 35.6001C47.4 36.7001 45.8 37.8001 44.2 38.9001C33 46.3001 21.6 53.6001 10.6 61.5001C7.7 63.5001 10.8 68.0001 13.7 66.0001C24.9 58.3001 35.7 50.2001 46.6 42.2001Z" fill="white"/>
<path d="M44.5 52.3C46.1 53.3 47.8 54.4 49.4 55.4C54.1 58.8 59 61.8 63.9 64.9C65.1 65.7 66.2 65.1 66.8 64.2C67.4 63.3 67.4 62 66.2 61.3C61.4 58.1 56.6 54.8 51.6 52C50 50.9 48.4 49.9 46.8 48.8C35.6 41.2 24.5 33.4 13.1 26.2C10.2 24.3 7.20001 28.8 10.1 30.8C21.4 38.3 32.9 45.2 44.5 52.3Z" fill="white"/>
<path d="M40.5 2.2C40.4 1.7 40.1 1.3 39.7 0.9C39.5 0.7 39.3 0.6 39.1 0.4C38.6 0.1 38.1 0 37.6 0C37.2 0 36.8 0.1 36.5 0.3C36.1 0.4 35.8 0.6 35.5 0.9C35.2 1.2 35 1.5 34.9 1.9C34.7 2.3 34.6 2.6 34.6 3C34.6 3.3 34.7 3.5 34.7 3.8C34.8 4.3 35.1 4.7 35.5 5.1C35.7 5.3 35.9 5.4 36.1 5.6C36.6 5.9 37.1 6 37.6 6C38 6 38.4 5.9 38.7 5.7C39.1 5.6 39.4 5.4 39.7 5.1C40 4.8 40.2 4.5 40.3 4.1C40.5 3.7 40.6 3.4 40.6 3C40.5 2.7 40.5 2.4 40.5 2.2Z" fill="white"/>
<path d="M3.6 19.8C-0.2 19.8 -0.2 25.7001 3.6 25.7001C7.4 25.6001 7.4 19.8 3.6 19.8Z" fill="white"/>
<path d="M5.4 69.6C5.3 69.1 5 68.7 4.7 68.4L4.1 68C3.7 67.8 3.2 67.6 2.7 67.6C2.3 67.6 2 67.7 1.6 67.8C1.3 67.9 1 68.1 0.7 68.4C0.4 68.6 0.2 68.9 0.1 69.3C0.1 69.6 0 69.9 0 70.3C0 70.5 0.1 70.8 0.1 71C0.2 71.5 0.5 71.9 0.8 72.2C1 72.3 1.2 72.5 1.4 72.6C1.8 72.9 2.2 73 2.7 73C3.1 73 3.4 72.9 3.8 72.8C4.1 72.7 4.4 72.5 4.7 72.2C5 72 5.2 71.7 5.3 71.3C5.5 71 5.6 70.6 5.5 70.2C5.4 70 5.4 69.8 5.4 69.6Z" fill="white"/>
<path d="M38.4 84.8C34.5 84.8 34.5 90.9 38.4 90.9C42.4 90.9 42.4 84.8 38.4 84.8Z" fill="white"/>
<path d="M76 67.1C75.9 66.6 75.6 66.2 75.3 65.9L74.8 65.5C74.4 65.3 73.9 65.1 73.4 65.1C73 65.1 72.7 65.2 72.4 65.3C72.1 65.4 71.8 65.6 71.5 65.9C71.2 66.1 71.1 66.4 70.9 66.8C70.7 67.1 70.7 67.5 70.7 67.8C70.7 68 70.8 68.3 70.8 68.5C70.9 69 71.2 69.4 71.5 69.7C71.7 69.8 71.9 70 72 70.1C72.4 70.3 72.9 70.5 73.4 70.5C73.8 70.5 74.1 70.4 74.4 70.3C74.7 70.2 75 70 75.3 69.7C75.6 69.5 75.7 69.2 75.9 68.8C76.1 68.5 76.1 68.1 76.1 67.8C76 67.6 76 67.3 76 67.1Z" fill="white"/>
<path d="M74 21.4C73.9 20.9 73.6 20.5 73.3 20.2C73.1 20.1 72.9 19.9 72.7 19.8C72.3 19.5 71.8 19.4 71.3 19.4C70.9 19.4 70.6 19.5 70.2 19.6C69.9 19.7 69.6 19.9 69.3 20.2C69 20.5 68.8 20.7 68.7 21.1C68.5 21.4 68.4 21.8 68.5 22.2C68.5 22.4 68.6 22.7 68.6 22.9C68.7 23.4 69 23.8 69.3 24.1L69.9 24.5C70.3 24.8 70.8 24.9 71.3 24.9C71.7 24.9 72 24.8 72.4 24.7C72.7 24.6 73 24.4 73.3 24.1C73.6 23.8 73.8 23.6 73.9 23.2C74.1 22.9 74.2 22.5 74.1 22.1C74.1 21.9 74.1 21.7 74 21.4Z" fill="white"/>
<path d="M31.6 29.8C31.5 29.7 31.4 29.5 31.3 29.4C31.1 29.2 31 28.9 30.8 28.7C30.5 28.2 30.1 27.7 29.8 27.2C29.4 26.7 29.1 26.2 28.7 25.7C28.3 25.2 27.9 24.6 27.4 24.1C27 23.8 26.4 23.6 25.9 23.9C25.4 24.2 25.2 24.8 25.3 25.3C25.5 26 25.8 26.5 26.2 27.1C26.5 27.6 26.8 28.1 27.1 28.7C27.4 29.2 27.7 29.7 28 30.3C28.4 31.1 28.8 32.1 29.8 32.3C30.6 32.5 31.6 32 31.8 31.2C31.9 30.7 31.9 30.2 31.6 29.8Z" fill="white"/>
<path d="M24.2 43.8C24.1 43.8 23.9 43.8 23.7 43.8C23.4 43.8 23.1 43.9001 22.8 43.9001C22.2 44.0001 21.6 44 21 44.1C20.4 44.2 19.8 44.2 19.2 44.3C18.5 44.4 17.8 44.4001 17.2 44.7001C16.7 44.9001 16.3 45.3001 16.3 45.9001C16.3 46.4001 16.7 47 17.3 47.1C18 47.2 18.6 47.2001 19.3 47.2001C19.9 47.2001 20.5 47.2001 21.1 47.2001C21.7 47.2001 22.3 47.2001 22.9 47.2001C23.8 47.2001 24.8 47.4 25.5 46.6C26.1 46 26.2 44.9 25.5 44.3C25.1 44 24.7 43.8 24.2 43.8Z" fill="white"/>
<path d="M29.8 58.7C29.7 58.8 29.6 59 29.6 59.1C29.4 59.4 29.3 59.6 29.1 59.9C28.8 60.4 28.5 60.9 28.1 61.4C27.8 61.9 27.5 62.4 27.2 63C26.9 63.6 26.5 64.2 26.3 64.8C26.1 65.3 26.2 65.9 26.7 66.3C27.1 66.6 27.8 66.7 28.2 66.3C28.7 65.9 29.1 65.3 29.5 64.8C29.9 64.3 30.2 63.8 30.6 63.4C31 62.9 31.3 62.5 31.7 62C32.3 61.3 33 60.6 32.9 59.6C32.8 58.8 32 58 31.1 58.2C30.5 58.1 30.1 58.2 29.8 58.7Z" fill="white"/>
<path d="M44.4 61.2C44.5 61.3 44.6 61.3999 44.7 61.5999C44.9 61.7999 45.1 62.1 45.2 62.3C45.6 62.8 45.9 63.3 46.3 63.8C46.7 64.3 47 64.7999 47.4 65.1999C47.8 65.6999 48.2 66.2999 48.7 66.6999C49.1 66.9999 49.7 67.2 50.2 66.9C50.6 66.6 50.9 66 50.7 65.5C50.5 64.8 50.1 64.3 49.8 63.7C49.5 63.2 49.2 62.6999 48.9 62.0999C48.6 61.5999 48.3 61.1 48 60.5C47.5 59.7 47.2 58.8 46.2 58.5C45.4 58.3 44.4 58.8 44.2 59.7C44.1 60.3 44.1 60.8 44.4 61.2Z" fill="white"/>
<path d="M50.6 47.7C50.7 47.7 50.9 47.7 51.1 47.7C51.4 47.7 51.7 47.7 52 47.7C52.6 47.7 53.2 47.6 53.8 47.6C54.4 47.6 55 47.5 55.6 47.5C56.3 47.4 57 47.4 57.6 47.2C58.1 47 58.6 46.6 58.6 46C58.6 45.5 58.3 44.9 57.7 44.8C57 44.6 56.4 44.6 55.7 44.6C55.1 44.6 54.5 44.6 53.9 44.5C53.3 44.5 52.7 44.5 52.1 44.4C51.2 44.4 50.2 44.2 49.5 44.9C48.9 45.5 48.8 46.6 49.4 47.2C49.7 47.4 50.1 47.7 50.6 47.7Z" fill="white"/>
<path d="M46.4 31.9C46.5 31.8 46.6 31.6001 46.6 31.5001C46.8 31.2001 46.9 31.0001 47.1 30.7001C47.4 30.2001 47.7 29.7001 48 29.1001C48.3 28.6001 48.6 28 48.9 27.5C49.2 26.9 49.6 26.3001 49.8 25.7001C49.9 25.2001 49.8 24.6001 49.4 24.2001C48.9 23.9001 48.3 23.9 47.9 24.3C47.4 24.8 47 25.3 46.6 25.9C46.2 26.4 45.9 26.9 45.5 27.4C45.1 27.9 44.8 28.4 44.4 28.9C43.9 29.6 43.1 30.3 43.3 31.3C43.5 32.1 44.3 32.8001 45.2 32.7001C45.7 32.5001 46.1 32.3 46.4 31.9Z" fill="white"/>
</g>
<defs>
<clipPath id="clip0_3506_4769">
<rect width="76.1" height="90.9" fill="white"/>
</clipPath>
</defs>
</svg>
