<svg width="600" height="338" viewBox="0 0 600 338" fill="none" xmlns="http://www.w3.org/2000/svg">
<g opacity="0.2">
<mask id="mask0_3510_4921" style="mask-type:alpha" maskUnits="userSpaceOnUse" x="0" y="0" width="600" height="338">
<rect width="600" height="337.5" fill="#808080"/>
</mask>
<g mask="url(#mask0_3510_4921)">
<circle cx="249" cy="115" r="2" fill="white"/>
<circle cx="77" cy="117" r="2" fill="white"/>
<circle cx="372" cy="57" r="2" fill="white"/>
<circle cx="326" cy="84" r="2" fill="white"/>
<circle cx="44" cy="304" r="2" fill="white"/>
<circle cx="324" cy="47" r="2" fill="white"/>
<circle cx="246" cy="323" r="2" fill="white"/>
<circle cx="327" cy="24" r="2" fill="white"/>
<circle cx="472" cy="271" r="2" fill="white"/>
<circle cx="381" cy="10" r="2" fill="white"/>
<circle cx="186" cy="266" r="2" fill="white"/>
<circle cx="464" cy="228" r="2" fill="white"/>
<circle cx="95" cy="271" r="2" fill="white"/>
<circle cx="250" cy="85" r="2" fill="white"/>
<circle cx="420" cy="105" r="2" fill="white"/>
<circle cx="263" cy="14" r="2" fill="white"/>
<circle cx="339" cy="135" r="2" fill="white"/>
<circle cx="101" cy="315" r="2" fill="white"/>
<circle cx="95" cy="220" r="2" fill="white"/>
<circle cx="83" cy="90" r="2" fill="white"/>
<circle cx="377" cy="23" r="2" fill="white"/>
<circle cx="252" cy="209" r="2" fill="white"/>
<circle cx="170" cy="243" r="2" fill="white"/>
<circle cx="257" cy="143" r="2" fill="white"/>
<circle cx="122" cy="206" r="2" fill="white"/>
<circle cx="444" cy="328" r="2" fill="white"/>
<circle cx="60" cy="72" r="2" fill="white"/>
<circle cx="284" cy="290" r="2" fill="white"/>
<circle cx="453" cy="248" r="2" fill="white"/>
<circle cx="169" cy="32" r="2" fill="white"/>
</g>
</g>
<mask id="mask1_3510_4921" style="mask-type:alpha" maskUnits="userSpaceOnUse" x="0" y="0" width="600" height="338">
<rect width="600" height="337.5" fill="#808080"/>
</mask>
<g mask="url(#mask1_3510_4921)">
<circle cx="55.5" cy="168.5" r="0.5" fill="white"/>
<circle cx="56.5" cy="315.5" r="0.5" fill="white"/>
<circle cx="180.5" cy="218.5" r="0.5" fill="white"/>
<circle cx="144" cy="194" r="1" fill="white"/>
<circle cx="187.5" cy="276.5" r="0.5" fill="white"/>
<circle cx="97.5" cy="154.5" r="0.5" fill="white"/>
<circle cx="570" cy="108" r="1" fill="white"/>
<circle cx="517.5" cy="67.5" r="0.5" fill="white"/>
<circle cx="176" cy="325" r="1" fill="white"/>
<circle cx="364" cy="143" r="1" fill="white"/>
<circle cx="69.5" cy="191.5" r="0.5" fill="white"/>
<circle cx="149.5" cy="199.5" r="0.5" fill="white"/>
<circle cx="541.5" cy="271.5" r="0.5" fill="white"/>
<circle cx="398" cy="87" r="1" fill="white"/>
<circle cx="312" cy="46" r="1" fill="white"/>
<circle cx="195" cy="257" r="1" fill="white"/>
<circle cx="278.5" cy="110.5" r="0.5" fill="white"/>
<circle cx="432.5" cy="183.5" r="0.5" fill="white"/>
<circle cx="117.5" cy="251.5" r="0.5" fill="white"/>
<circle cx="563.5" cy="264.5" r="0.5" fill="white"/>
<circle cx="219" cy="171" r="1" fill="white"/>
<circle cx="457.5" cy="230.5" r="0.5" fill="white"/>
<circle cx="597.5" cy="190.5" r="0.5" fill="white"/>
<circle cx="395" cy="289" r="1" fill="white"/>
<circle cx="196.5" cy="66.5" r="0.5" fill="white"/>
</g>
</svg>
