<svg width="0" height="0" class="hidden">
  <symbol fill="none" xmlns="http://www.w3.org/2000/svg" viewBox="0 0 35 34" id="supportIcon">
    <circle cx="17.5" cy="17" r="17" fill="currentColor"></circle>
    <path d="M19.665 19.74L20.785 18.62C20.9359 18.471 21.1267 18.3691 21.3344 18.3265C21.5421 18.2839 21.7577 18.3025 21.955 18.38L23.32 18.925C23.5194 19.006 23.6904 19.1441 23.8114 19.3221C23.9324 19.5 23.998 19.7098 24 19.925V22.425C23.9988 22.5714 23.9681 22.716 23.9095 22.8502C23.851 22.9844 23.7659 23.1054 23.6594 23.2058C23.5529 23.3062 23.4272 23.3841 23.2898 23.4346C23.1524 23.4852 23.0062 23.5074 22.86 23.5C13.295 22.905 11.365 14.805 11 11.705C10.9831 11.5528 10.9985 11.3987 11.0454 11.2529C11.0923 11.1071 11.1695 10.9728 11.272 10.859C11.3745 10.7452 11.5 10.6543 11.6401 10.5925C11.7802 10.5306 11.9318 10.4991 12.085 10.5H14.5C14.7155 10.5007 14.9259 10.5658 15.1041 10.6869C15.2823 10.8081 15.4202 10.9798 15.5 11.18L16.045 12.545C16.1251 12.7416 16.1456 12.9573 16.1038 13.1654C16.062 13.3735 15.9598 13.5647 15.81 13.715L14.69 14.835C14.69 14.835 15.335 19.2 19.665 19.74Z" fill="black"></path>
  </symbol>
</svg>